<svg width="244" height="1373" viewBox="0 0 244 1373" fill="none" xmlns="http://www.w3.org/2000/svg">
<g id="dog-walk 1">
<g id="dog1">
<path id="Vector" d="M161.944 100.533C161.944 100.533 181.201 133.25 186.882 134.568C192.564 135.885 176.853 147.1 175.359 145.006C173.865 142.912 151.743 111.923 151.743 111.923L161.944 100.533Z" fill="#A35318"/>
<path id="Vector_2" d="M60.9262 98.967C60.9262 98.967 75.5062 134.296 80.9452 136.398C86.3852 138.502 69.1352 147.169 67.9512 144.887C66.7642 142.602 49.2222 108.809 49.2222 108.809L60.9262 98.967Z" fill="#A35318"/>
<path id="Vector_3" d="M224.308 37.0742C224.308 37.0742 225.4 64.7942 194.53 64.2142C190.478 63.2502 194.53 52.4452 194.53 52.4452L224.308 37.0742Z" fill="#A35318"/>
<path id="Vector_4" d="M49.4362 77.5282C49.4362 77.5282 40.7342 64.1552 34.7522 50.6482C32.4372 60.8752 40.1742 87.7532 40.1742 87.7532L49.4362 77.5282Z" fill="#391F0A"/>
<path id="Vector_5" d="M211.259 60.686C208.78 60.686 203.021 60.296 201.288 56.789L202.151 56.363C204.047 60.205 212.25 59.697 212.336 59.697L212.399 60.656C212.325 60.661 211.902 60.686 211.259 60.686Z" fill="#533420"/>
<path id="Vector_6" d="M224.308 37.074C224.308 37.074 202.054 37.973 187.777 20.61C182.182 15.399 178.902 16.494 170.026 19.324C161.15 22.153 147.027 42.285 145.695 59.714C144.365 77.142 60.4353 69.873 49.8863 75.984C39.3383 82.095 35.1463 95.139 33.9963 101.571C32.8483 108.003 15.4953 141.575 16.0113 145.435C16.5273 149.295 36.4713 153.747 32.6133 149.373C28.7543 144.998 46.5433 124.803 59.4063 117.855C72.2683 110.91 126.035 126.859 152.791 125.83C153.564 130.803 136.413 142.742 136.929 147.373C137.444 152.004 160.453 151.851 156.595 146.706C152.736 141.561 172.086 122.999 174.144 118.113C176.201 113.224 192.152 100.105 197.039 54.934C206.814 53.796 224.308 37.074 224.308 37.074Z" fill="#603814"/>
<g id="Group">
<path id="Vector_7" d="M198.637 33.413C200.494 34.228 201.283 36.527 200.396 38.551C199.509 40.569 197.287 41.547 195.431 40.735C193.572 39.919 192.785 37.623 193.671 35.601C194.555 33.579 196.778 32.6 198.637 33.413Z" fill="#2D1306"/>
<path id="Vector_8" d="M196.143 33.5761C197.264 34.0651 197.742 35.4551 197.206 36.6801C196.672 37.8991 195.326 38.4901 194.203 37.9981C193.082 37.5081 192.604 36.1171 193.14 34.8961C193.676 33.6751 195.021 33.0831 196.143 33.5761Z" fill="#FDFEFF"/>
</g>
<path id="Vector_9" d="M217.056 36.9342C219.434 36.1332 227.619 36.6752 227.66 37.9972C227.699 39.3232 222.123 43.4882 220.73 43.3322C219.339 43.1802 215.445 37.2052 217.056 36.9342Z" fill="#391F0A"/>
<path id="Vector_10" d="M178.065 78.707C181.127 79.049 189.679 78.893 194.742 78.617C199.806 78.338 198.425 66.019 195.283 66.558C194.767 67.781 194.341 70.62 194.341 70.62C166.057 72.051 148.966 51.841 147.422 49.352C145.881 46.853 139.559 51.938 141.802 55.683C144.041 59.433 151.769 75.771 178.065 78.707Z" fill="#409F91"/>
<path id="Vector_11" d="M184.238 24.5532C189.64 13.0322 159.543 12.1372 155.426 28.1362C151.309 44.1372 146.164 86.5322 167.636 93.9562C188.612 98.5132 178.836 36.0732 184.238 24.5532Z" fill="#46260F"/>
</g>
<g id="dog2">
<path id="Vector_12" d="M177.489 251.809C177.489 251.809 172.551 289.45 176.221 293.983C179.892 298.516 160.606 297.697 160.715 295.127C160.824 292.558 162.44 254.516 162.44 254.516L177.489 251.809Z" fill="#A35318"/>
<path id="Vector_13" d="M72.7783 250.931C72.7783 250.931 68.5933 288.921 72.3543 293.376C76.1153 297.834 56.8223 297.15 56.8793 294.579C56.9363 292.005 57.7843 253.939 57.7843 253.939L72.7783 250.931Z" fill="#A35318"/>
<path id="Vector_14" d="M224.308 188.255C224.308 188.255 225.4 215.975 194.53 215.395C190.478 214.431 194.53 203.626 194.53 203.626L224.308 188.255Z" fill="#A35318"/>
<path id="Vector_15" d="M49.4363 228.709C49.4363 228.709 33.0363 215.781 27.0543 202.274C24.7393 212.501 40.1743 238.934 40.1743 238.934L49.4363 228.709Z" fill="#391F0A"/>
<path id="Vector_16" d="M211.259 211.868C208.78 211.868 203.021 211.478 201.288 207.971L202.151 207.545C204.047 211.387 212.25 210.879 212.336 210.879L212.399 211.838C212.325 211.842 211.903 211.868 211.259 211.868Z" fill="#533420"/>
<path id="Vector_17" d="M224.308 188.255C224.308 188.255 202.054 189.154 187.777 171.791C182.182 166.58 178.902 167.675 170.026 170.505C161.15 173.334 147.027 193.466 145.695 210.895C144.365 228.323 60.4353 221.054 49.8863 227.165C39.3383 233.276 35.1463 246.32 33.9963 252.752C32.8483 259.184 15.4953 292.756 16.0113 296.616C16.5273 300.476 36.4713 304.928 32.6133 300.554C28.7543 296.179 46.5433 275.984 59.4063 269.036C72.2683 262.091 126.035 278.04 152.791 277.011C153.564 281.984 136.413 293.923 136.929 298.554C137.444 303.185 160.453 303.032 156.595 297.887C152.736 292.742 172.086 274.18 174.144 269.294C176.201 264.405 192.152 251.286 197.039 206.115C206.815 204.978 224.308 188.255 224.308 188.255Z" fill="#603814"/>
<g id="Group_2">
<path id="Vector_18" d="M198.637 184.594C200.494 185.409 201.283 187.708 200.396 189.732C199.509 191.75 197.287 192.728 195.431 191.916C193.572 191.1 192.785 188.804 193.671 186.782C194.555 184.761 196.779 183.782 198.637 184.594Z" fill="#2D1306"/>
<path id="Vector_19" d="M196.143 184.757C197.264 185.246 197.742 186.636 197.206 187.861C196.672 189.08 195.326 189.671 194.203 189.179C193.082 188.689 192.604 187.298 193.14 186.077C193.676 184.857 195.021 184.265 196.143 184.757Z" fill="#FDFEFF"/>
</g>
<path id="Vector_20" d="M217.056 188.116C219.434 187.315 227.619 187.857 227.66 189.179C227.699 190.505 222.123 194.67 220.73 194.514C219.339 194.362 215.446 188.387 217.056 188.116Z" fill="#391F0A"/>
<path id="Vector_21" d="M178.066 229.889C181.128 230.231 189.68 230.075 194.743 229.799C199.807 229.52 198.426 217.201 195.284 217.74C194.768 218.963 194.342 221.802 194.342 221.802C166.058 223.233 148.967 203.023 147.423 200.534C145.882 198.035 139.56 203.12 141.803 206.865C144.041 210.615 151.769 226.953 178.066 229.889Z" fill="#409F91"/>
<path id="Vector_22" d="M184.239 175.735C189.641 164.214 159.544 163.319 155.427 179.318C151.31 195.319 146.165 237.714 167.637 245.138C188.613 249.695 178.836 187.254 184.239 175.735Z" fill="#46260F"/>
</g>
<g id="dog3">
<path id="Vector_23" d="M171.416 411.466C171.416 411.466 145.087 438.816 145.347 444.642C145.608 450.469 130.578 438.355 132.193 436.353C133.807 434.35 157.702 404.705 157.702 404.705L171.416 411.466Z" fill="#A35318"/>
<path id="Vector_24" d="M59.5033 415.863C59.5033 415.863 29.1213 439.05 28.4903 444.846C27.8593 450.644 15.0413 436.208 16.9413 434.475C18.8433 432.741 46.9803 407.088 46.9803 407.088L59.5033 415.863Z" fill="#A35318"/>
<path id="Vector_25" d="M224.308 339.437C224.308 339.437 225.4 367.157 194.53 366.577C190.478 365.613 194.53 354.808 194.53 354.808L224.308 339.437Z" fill="#A35318"/>
<path id="Vector_26" d="M49.4363 379.891C49.4363 379.891 27.7123 374.393 21.7313 360.887C19.4163 371.114 40.1743 390.116 40.1743 390.116L49.4363 379.891Z" fill="#391F0A"/>
<path id="Vector_27" d="M211.259 363.049C208.78 363.049 203.021 362.659 201.288 359.152L202.151 358.726C204.047 362.568 212.25 362.06 212.336 362.06L212.399 363.019C212.326 363.023 211.903 363.049 211.259 363.049Z" fill="#533420"/>
<path id="Vector_28" d="M224.308 339.437C224.308 339.437 202.054 340.336 187.777 322.973C182.182 317.762 178.902 318.857 170.026 321.687C161.15 324.516 147.027 344.648 145.695 362.077C144.365 379.505 60.4353 372.236 49.8863 378.347C39.3383 384.458 35.1463 397.502 33.9963 403.934C32.8483 410.366 35.2213 445.686 35.7363 449.546C36.2513 453.406 57.6033 453.921 53.7453 449.546C49.8863 445.171 46.5423 427.165 59.4053 420.218C72.2673 413.273 126.034 429.222 152.79 428.193C153.563 433.166 155.618 444.916 156.134 449.547C156.649 454.178 176.585 454.305 172.727 449.16C168.868 444.015 172.085 425.363 174.143 420.476C176.2 415.587 192.151 402.468 197.038 357.297C206.815 356.159 224.308 339.437 224.308 339.437Z" fill="#603814"/>
<g id="Group_3">
<path id="Vector_29" d="M198.637 335.775C200.494 336.59 201.283 338.889 200.396 340.913C199.509 342.931 197.287 343.909 195.431 343.097C193.572 342.281 192.785 339.985 193.671 337.963C194.555 335.942 196.779 334.963 198.637 335.775Z" fill="#2D1306"/>
<path id="Vector_30" d="M196.143 335.938C197.264 336.427 197.742 337.817 197.206 339.042C196.672 340.261 195.326 340.852 194.203 340.36C193.082 339.87 192.604 338.479 193.14 337.258C193.676 336.037 195.021 335.445 196.143 335.938Z" fill="#FDFEFF"/>
</g>
<path id="Vector_31" d="M217.056 339.296C219.434 338.495 227.619 339.037 227.66 340.359C227.699 341.685 222.123 345.85 220.73 345.694C219.339 345.542 215.446 339.567 217.056 339.296Z" fill="#391F0A"/>
<path id="Vector_32" d="M178.066 381.07C181.128 381.412 189.68 381.256 194.743 380.98C199.807 380.701 198.426 368.382 195.284 368.921C194.768 370.144 194.342 372.983 194.342 372.983C166.058 374.414 148.967 354.204 147.423 351.715C145.882 349.216 139.56 354.301 141.803 358.046C144.042 361.796 151.769 378.134 178.066 381.07Z" fill="#409F91"/>
<path id="Vector_33" d="M184.239 326.916C189.641 315.395 159.544 314.5 155.427 330.499C151.31 346.5 146.165 388.895 167.637 396.319C188.613 400.876 178.836 338.436 184.239 326.916Z" fill="#46260F"/>
</g>
<g id="dog4">
<path id="Vector_34" d="M170.919 564.603C170.919 564.603 144.55 591.915 144.801 597.741C145.053 603.568 130.042 591.433 131.659 589.432C133.276 587.431 157.214 557.822 157.214 557.822L170.919 564.603Z" fill="#A35318"/>
<path id="Vector_35" d="M65.4353 564.33C65.4353 564.33 39.1513 592.077 39.4563 597.899C39.7603 603.724 24.7983 591.523 26.3973 589.508C27.9983 587.492 51.6693 557.671 51.6693 557.671L65.4353 564.33Z" fill="#A35318"/>
<path id="Vector_36" d="M224.308 490.093C224.308 490.093 225.4 517.813 194.53 517.233C190.478 516.269 194.53 505.464 194.53 505.464L224.308 490.093Z" fill="#A35318"/>
<path id="Vector_37" d="M49.4362 530.547C49.4362 530.547 33.0362 517.619 27.0542 504.112C24.7392 514.339 40.1742 540.772 40.1742 540.772L49.4362 530.547Z" fill="#391F0A"/>
<path id="Vector_38" d="M211.259 513.705C208.78 513.705 203.021 513.315 201.288 509.808L202.151 509.382C204.047 513.224 212.25 512.716 212.336 512.716L212.399 513.675C212.326 513.68 211.903 513.705 211.259 513.705Z" fill="#533420"/>
<path id="Vector_39" d="M224.308 490.093C224.308 490.093 202.054 490.992 187.777 473.629C182.182 468.418 178.902 469.513 170.026 472.343C161.15 475.172 147.027 495.304 145.695 512.733C144.365 530.161 60.4353 522.892 49.8863 529.003C39.3383 535.114 33.9603 558.018 32.8113 564.45C31.6633 570.882 57.3463 596.6 52.8583 601.762C50.3033 604.7 79.6763 600.921 75.8183 596.546C71.9593 592.171 55.9173 576.077 68.7803 569.13C81.6423 562.185 126.035 579.878 152.791 578.848C153.564 583.821 176.973 593.823 177.488 598.453C178.003 603.084 199.032 601.69 195.174 596.545C191.315 591.4 172.086 576.017 174.144 571.13C176.201 566.241 192.152 553.122 197.039 507.951C206.815 506.816 224.308 490.093 224.308 490.093Z" fill="#603814"/>
<g id="Group_4">
<path id="Vector_40" d="M198.637 486.432C200.494 487.247 201.283 489.546 200.396 491.57C199.509 493.588 197.287 494.566 195.431 493.754C193.572 492.938 192.785 490.642 193.671 488.62C194.555 486.599 196.779 485.619 198.637 486.432Z" fill="#2D1306"/>
<path id="Vector_41" d="M196.143 486.595C197.264 487.084 197.742 488.474 197.206 489.699C196.672 490.918 195.326 491.509 194.203 491.017C193.082 490.527 192.604 489.136 193.14 487.915C193.676 486.695 195.021 486.103 196.143 486.595Z" fill="#FDFEFF"/>
</g>
<path id="Vector_42" d="M217.056 489.953C219.434 489.152 227.619 489.694 227.66 491.016C227.699 492.342 222.123 496.507 220.73 496.351C219.339 496.199 215.446 490.225 217.056 489.953Z" fill="#391F0A"/>
<path id="Vector_43" d="M178.066 531.727C181.128 532.069 189.68 531.913 194.743 531.637C199.807 531.358 198.426 519.039 195.284 519.578C194.768 520.801 194.342 523.64 194.342 523.64C166.058 525.071 148.967 504.861 147.423 502.372C145.882 499.873 139.56 504.958 141.803 508.703C144.041 512.452 151.769 528.79 178.066 531.727Z" fill="#409F91"/>
<path id="Vector_44" d="M184.239 477.573C189.641 466.052 159.544 465.157 155.427 481.156C151.31 497.157 146.165 539.552 167.637 546.976C188.613 551.532 178.836 489.092 184.239 477.573Z" fill="#46260F"/>
</g>
<g id="dog5">
<path id="Vector_45" d="M184.432 700.588C184.432 700.588 181.096 738.405 184.954 742.778C188.813 747.151 169.511 747.151 169.511 744.579C169.511 742.007 169.511 703.932 169.511 703.932L184.432 700.588Z" fill="#A35318"/>
<path id="Vector_46" d="M72.2683 702.391C72.2683 702.391 68.9323 740.464 72.7903 744.835C76.6493 749.208 57.3463 748.954 57.3463 746.382C57.3463 743.808 57.3463 705.733 57.3463 705.733L72.2683 702.391Z" fill="#A35318"/>
<path id="Vector_47" d="M224.308 639.875C224.308 639.875 225.4 667.596 194.53 667.016C190.478 666.051 194.53 655.246 194.53 655.246L224.308 639.875Z" fill="#A35318"/>
<path id="Vector_48" d="M49.4362 680.33C49.4362 680.33 39.6682 664.998 33.6862 651.49C31.3712 661.717 40.1742 690.554 40.1742 690.554L49.4362 680.33Z" fill="#391F0A"/>
<path id="Vector_49" d="M211.259 663.488C208.78 663.488 203.021 663.097 201.288 659.59L202.151 659.164C204.047 663.006 212.25 662.498 212.336 662.498L212.399 663.457C212.326 663.463 211.903 663.488 211.259 663.488Z" fill="#533420"/>
<path id="Vector_50" d="M224.308 639.875C224.308 639.875 202.054 640.775 187.777 623.412C182.182 618.201 178.902 619.295 170.026 622.125C161.15 624.955 147.027 645.086 145.695 662.516C144.365 679.944 60.4353 672.674 49.8863 678.786C39.3383 684.897 35.1463 697.94 33.9963 704.372C32.8483 710.805 35.2213 746.125 35.7363 749.984C36.2513 753.843 57.6033 754.359 53.7453 749.984C49.8863 745.609 46.5423 727.603 59.4053 720.656C72.2673 713.711 126.034 729.66 152.79 728.631C153.563 733.604 155.618 745.354 156.134 749.985C156.649 754.616 176.585 754.743 172.727 749.598C168.868 744.453 172.085 725.801 174.143 720.914C176.2 716.025 192.151 702.905 197.038 657.735C206.815 656.598 224.308 639.875 224.308 639.875Z" fill="#603814"/>
<g id="Group_5">
<path id="Vector_51" d="M198.637 636.216C200.494 637.03 201.283 639.328 200.396 641.352C199.509 643.37 197.287 644.348 195.431 643.536C193.572 642.72 192.785 640.425 193.671 638.403C194.555 636.381 196.779 635.403 198.637 636.216Z" fill="#2D1306"/>
<path id="Vector_52" d="M196.143 636.377C197.264 636.867 197.742 638.256 197.206 639.481C196.672 640.7 195.326 641.292 194.203 640.799C193.082 640.309 192.604 638.918 193.14 637.697C193.676 636.477 195.021 635.885 196.143 636.377Z" fill="#FDFEFF"/>
</g>
<path id="Vector_53" d="M217.056 639.736C219.434 638.935 227.619 639.476 227.66 640.798C227.699 642.124 222.123 646.29 220.73 646.134C219.339 645.982 215.446 640.008 217.056 639.736Z" fill="#391F0A"/>
<path id="Vector_54" d="M178.066 681.51C181.128 681.852 189.68 681.696 194.743 681.42C199.807 681.141 198.426 668.822 195.284 669.361C194.768 670.584 194.342 673.422 194.342 673.422C166.058 674.854 148.967 654.643 147.423 652.154C145.882 649.656 139.56 654.74 141.803 658.486C144.041 662.234 151.769 678.572 178.066 681.51Z" fill="#409F91"/>
<path id="Vector_55" d="M184.239 627.355C189.641 615.834 159.544 614.939 155.427 630.937C151.31 646.939 146.165 689.333 167.637 696.757C188.613 701.314 178.836 638.875 184.239 627.355Z" fill="#46260F"/>
</g>
<g id="dog6">
<path id="Vector_56" d="M161.945 853.992C161.945 853.992 181.202 886.709 186.883 888.027C192.565 889.343 176.854 900.558 175.36 898.465C173.866 896.372 151.744 865.382 151.744 865.382L161.945 853.992Z" fill="#A35318"/>
<path id="Vector_57" d="M60.9273 852.425C60.9273 852.425 75.5073 887.754 80.9463 889.856C86.3863 891.96 69.1363 900.627 67.9523 898.345C66.7653 896.06 49.2233 862.267 49.2233 862.267L60.9273 852.425Z" fill="#A35318"/>
<path id="Vector_58" d="M224.308 790.533C224.308 790.533 225.4 818.252 194.53 817.672C190.478 816.709 194.53 805.904 194.53 805.904L224.308 790.533Z" fill="#A35318"/>
<path id="Vector_59" d="M49.4363 830.986C49.4363 830.986 33.0363 818.058 27.0543 804.552C24.7393 814.779 40.1743 841.212 40.1743 841.212L49.4363 830.986Z" fill="#391F0A"/>
<path id="Vector_60" d="M211.26 814.144C208.781 814.144 203.022 813.755 201.289 810.248L202.152 809.822C204.048 813.664 212.251 813.156 212.337 813.156L212.4 814.115C212.326 814.119 211.903 814.144 211.26 814.144Z" fill="#533420"/>
<path id="Vector_61" d="M224.308 790.533C224.308 790.533 202.054 791.431 187.777 774.068C182.182 768.857 178.902 769.953 170.026 772.783C161.15 775.611 147.027 795.744 145.695 813.172C144.365 830.6 60.4353 823.332 49.8863 829.442C39.3383 835.553 35.1463 848.598 33.9963 855.03C32.8483 861.462 15.4953 895.034 16.0113 898.893C16.5273 902.752 36.4713 907.205 32.6133 902.831C28.7543 898.456 46.5433 878.261 59.4063 871.313C72.2683 864.368 126.035 880.317 152.791 879.288C153.564 884.261 136.413 896.2 136.929 900.831C137.444 905.462 160.453 905.31 156.595 900.165C152.736 895.02 172.086 876.458 174.144 871.571C176.201 866.682 192.152 853.563 197.039 808.391C206.815 807.255 224.308 790.533 224.308 790.533Z" fill="#603814"/>
<g id="Group_6">
<path id="Vector_62" d="M198.637 786.871C200.494 787.687 201.283 789.986 200.396 792.01C199.509 794.028 197.287 795.006 195.431 794.194C193.572 793.378 192.785 791.081 193.671 789.059C194.555 787.039 196.779 786.058 198.637 786.871Z" fill="#2D1306"/>
<path id="Vector_63" d="M196.143 787.035C197.264 787.523 197.742 788.914 197.206 790.139C196.672 791.358 195.326 791.948 194.203 791.457C193.082 790.967 192.604 789.576 193.14 788.355C193.677 787.134 195.021 786.543 196.143 787.035Z" fill="#FDFEFF"/>
</g>
<path id="Vector_64" d="M217.056 790.392C219.434 789.591 227.619 790.134 227.66 791.456C227.699 792.782 222.123 796.946 220.73 796.79C219.34 796.638 215.446 790.664 217.056 790.392Z" fill="#391F0A"/>
<path id="Vector_65" d="M178.066 832.166C181.128 832.508 189.68 832.352 194.743 832.076C199.807 831.797 198.426 819.478 195.284 820.017C194.768 821.24 194.342 824.079 194.342 824.079C166.058 825.509 148.967 805.3 147.423 802.811C145.882 800.311 139.56 805.397 141.803 809.141C144.042 812.892 151.769 829.23 178.066 832.166Z" fill="#409F91"/>
<path id="Vector_66" d="M184.239 778.011C189.641 766.491 159.544 765.595 155.427 781.595C151.31 797.595 146.165 839.991 167.637 847.415C188.613 851.972 178.837 789.531 184.239 778.011Z" fill="#46260F"/>
</g>
<g id="dog7">
<path id="Vector_67" d="M177.489 1005.27C177.489 1005.27 172.551 1042.91 176.221 1047.44C179.892 1051.97 160.606 1051.15 160.715 1048.58C160.824 1046.02 162.44 1007.97 162.44 1007.97L177.489 1005.27Z" fill="#A35318"/>
<path id="Vector_68" d="M72.7783 1004.39C72.7783 1004.39 68.5933 1042.38 72.3543 1046.83C76.1153 1051.29 56.8223 1050.61 56.8793 1048.04C56.9363 1045.46 57.7843 1007.4 57.7843 1007.4L72.7783 1004.39Z" fill="#A35318"/>
<path id="Vector_69" d="M224.308 941.714C224.308 941.714 225.4 969.434 194.53 968.854C190.478 967.89 194.53 957.085 194.53 957.085L224.308 941.714Z" fill="#A35318"/>
<path id="Vector_70" d="M49.4363 982.168C49.4363 982.168 29.2223 978.833 23.2413 965.326C20.9263 975.553 40.1753 992.393 40.1753 992.393L49.4363 982.168Z" fill="#391F0A"/>
<path id="Vector_71" d="M211.26 965.326C208.781 965.326 203.022 964.936 201.289 961.429L202.152 961.003C204.048 964.845 212.251 964.337 212.337 964.337L212.4 965.296C212.326 965.3 211.903 965.326 211.26 965.326Z" fill="#533420"/>
<path id="Vector_72" d="M224.308 941.714C224.308 941.714 202.054 942.613 187.777 925.25C182.182 920.039 178.902 921.134 170.026 923.964C161.15 926.793 147.027 946.925 145.695 964.354C144.365 981.782 60.4353 974.513 49.8863 980.624C39.3383 986.735 35.1463 999.779 33.9963 1006.21C32.8483 1012.64 15.4953 1046.21 16.0113 1050.07C16.5273 1053.93 36.4713 1058.39 32.6133 1054.01C28.7543 1049.64 46.5433 1029.44 59.4063 1022.49C72.2683 1015.55 126.035 1031.5 152.791 1030.47C153.564 1035.44 136.413 1047.38 136.929 1052.01C137.444 1056.64 160.453 1056.49 156.595 1051.35C152.736 1046.2 172.086 1027.64 174.144 1022.75C176.201 1017.86 192.152 1004.74 197.039 959.573C206.815 958.436 224.308 941.714 224.308 941.714Z" fill="#603814"/>
<g id="Group_7">
<path id="Vector_73" d="M198.637 938.052C200.494 938.867 201.283 941.166 200.396 943.19C199.509 945.208 197.287 946.186 195.431 945.374C193.572 944.558 192.785 942.262 193.671 940.24C194.555 938.219 196.779 937.24 198.637 938.052Z" fill="#2D1306"/>
<path id="Vector_74" d="M196.143 938.216C197.264 938.705 197.742 940.095 197.206 941.32C196.672 942.539 195.326 943.13 194.203 942.638C193.082 942.148 192.604 940.757 193.14 939.536C193.677 938.315 195.021 937.723 196.143 938.216Z" fill="#FDFEFF"/>
</g>
<path id="Vector_75" d="M217.056 941.574C219.434 940.773 227.619 941.315 227.66 942.637C227.699 943.963 222.123 948.128 220.73 947.972C219.34 947.82 215.446 941.845 217.056 941.574Z" fill="#391F0A"/>
<path id="Vector_76" d="M178.066 983.347C181.128 983.689 189.68 983.533 194.743 983.257C199.807 982.978 198.426 970.659 195.284 971.198C194.768 972.421 194.342 975.26 194.342 975.26C166.058 976.691 148.967 956.481 147.423 953.992C145.882 951.493 139.56 956.578 141.803 960.323C144.042 964.073 151.769 980.411 178.066 983.347Z" fill="#409F91"/>
<path id="Vector_77" d="M184.239 929.193C189.641 917.672 159.544 916.777 155.427 932.776C151.31 948.777 146.165 991.172 167.637 998.596C188.613 1003.15 178.837 940.713 184.239 929.193Z" fill="#46260F"/>
</g>
<g id="dog8">
<path id="Vector_78" d="M171.416 1164.92C171.416 1164.92 145.087 1192.27 145.347 1198.1C145.608 1203.93 130.578 1191.81 132.193 1189.81C133.807 1187.81 157.702 1158.16 157.702 1158.16L171.416 1164.92Z" fill="#A35318"/>
<path id="Vector_79" d="M59.5043 1169.32C59.5043 1169.32 29.1223 1192.51 28.4913 1198.3C27.8603 1204.1 15.0423 1189.67 16.9423 1187.93C18.8443 1186.2 46.9813 1160.55 46.9813 1160.55L59.5043 1169.32Z" fill="#A35318"/>
<path id="Vector_80" d="M224.308 1092.89C224.308 1092.89 225.4 1120.61 194.53 1120.03C190.478 1119.07 194.53 1108.26 194.53 1108.26L224.308 1092.89Z" fill="#A35318"/>
<path id="Vector_81" d="M49.4363 1133.35C49.4363 1133.35 33.0363 1120.42 27.0543 1106.91C24.7393 1117.14 40.1743 1143.57 40.1743 1143.57L49.4363 1133.35Z" fill="#391F0A"/>
<path id="Vector_82" d="M211.26 1116.51C208.781 1116.51 203.022 1116.12 201.289 1112.61L202.152 1112.18C204.048 1116.02 212.251 1115.52 212.337 1115.52L212.4 1116.48C212.326 1116.48 211.903 1116.51 211.26 1116.51Z" fill="#533420"/>
<path id="Vector_83" d="M224.308 1092.89C224.308 1092.89 202.054 1093.79 187.777 1076.43C182.182 1071.22 178.902 1072.31 170.026 1075.14C161.15 1077.97 147.027 1098.1 145.695 1115.53C144.365 1132.96 60.4353 1125.69 49.8863 1131.8C39.3383 1137.91 35.1463 1150.96 33.9963 1157.39C32.8483 1163.82 35.2213 1199.14 35.7363 1203C36.2513 1206.86 57.6033 1207.38 53.7453 1203C49.8863 1198.63 46.5423 1180.62 59.4053 1173.67C72.2673 1166.73 126.034 1182.68 152.79 1181.65C153.563 1186.62 155.618 1198.37 156.134 1203C156.649 1207.63 176.585 1207.76 172.727 1202.62C168.868 1197.47 172.085 1178.82 174.143 1173.93C176.2 1169.04 192.151 1155.92 197.038 1110.75C206.815 1109.62 224.308 1092.89 224.308 1092.89Z" fill="#603814"/>
<g id="Group_8">
<path id="Vector_84" d="M198.637 1089.23C200.494 1090.05 201.283 1092.35 200.396 1094.37C199.509 1096.39 197.287 1097.37 195.431 1096.55C193.572 1095.74 192.785 1093.44 193.671 1091.42C194.555 1089.4 196.779 1088.42 198.637 1089.23Z" fill="#2D1306"/>
<path id="Vector_85" d="M196.143 1089.4C197.264 1089.88 197.742 1091.27 197.206 1092.5C196.672 1093.72 195.326 1094.31 194.203 1093.82C193.082 1093.33 192.604 1091.94 193.14 1090.72C193.677 1089.5 195.021 1088.9 196.143 1089.4Z" fill="#FDFEFF"/>
</g>
<path id="Vector_86" d="M217.056 1092.75C219.434 1091.95 227.619 1092.49 227.66 1093.82C227.699 1095.14 222.123 1099.31 220.73 1099.15C219.34 1099 215.446 1093.03 217.056 1092.75Z" fill="#391F0A"/>
<path id="Vector_87" d="M178.066 1134.53C181.128 1134.87 189.68 1134.71 194.743 1134.44C199.807 1134.16 198.426 1121.84 195.284 1122.38C194.768 1123.6 194.342 1126.44 194.342 1126.44C166.058 1127.87 148.967 1107.66 147.423 1105.17C145.882 1102.67 139.56 1107.76 141.803 1111.5C144.042 1115.25 151.769 1131.59 178.066 1134.53Z" fill="#409F91"/>
<path id="Vector_88" d="M184.239 1080.37C189.641 1068.85 159.544 1067.96 155.427 1083.96C151.31 1099.96 146.165 1142.35 167.637 1149.78C188.613 1154.33 178.837 1091.89 184.239 1080.37Z" fill="#46260F"/>
</g>
<g id="dog9">
<path id="Vector_89" d="M170.92 1318.06C170.92 1318.06 144.551 1345.37 144.802 1351.2C145.054 1357.03 130.043 1344.89 131.66 1342.89C133.277 1340.89 157.215 1311.28 157.215 1311.28L170.92 1318.06Z" fill="#A35318"/>
<path id="Vector_90" d="M65.4353 1317.79C65.4353 1317.79 39.1513 1345.53 39.4563 1351.36C39.7603 1357.18 24.7983 1344.98 26.3973 1342.96C27.9983 1340.95 51.6693 1311.13 51.6693 1311.13L65.4353 1317.79Z" fill="#A35318"/>
<path id="Vector_91" d="M224.308 1243.55C224.308 1243.55 225.4 1271.27 194.53 1270.69C190.478 1269.73 194.53 1258.92 194.53 1258.92L224.308 1243.55Z" fill="#A35318"/>
<path id="Vector_92" d="M49.4363 1284C49.4363 1284 33.0363 1271.08 27.0543 1257.57C24.7393 1267.8 40.1743 1294.23 40.1743 1294.23L49.4363 1284Z" fill="#391F0A"/>
<path id="Vector_93" d="M211.259 1267.16C208.78 1267.16 203.021 1266.77 201.288 1263.27L202.151 1262.84C204.047 1266.68 212.25 1266.17 212.336 1266.17L212.399 1267.13C212.326 1267.14 211.903 1267.16 211.259 1267.16Z" fill="#533420"/>
<path id="Vector_94" d="M224.308 1243.55C224.308 1243.55 202.054 1244.45 187.777 1227.09C182.182 1221.87 178.902 1222.97 170.026 1225.8C161.15 1228.63 147.027 1248.76 145.695 1266.19C144.365 1283.62 60.4353 1276.35 49.8863 1282.46C39.3383 1288.57 33.9603 1311.48 32.8113 1317.91C31.6633 1324.34 57.3463 1350.06 52.8583 1355.22C50.3033 1358.16 79.6763 1354.38 75.8183 1350C71.9593 1345.63 55.9173 1329.53 68.7803 1322.59C81.6423 1315.64 126.035 1333.33 152.791 1332.3C153.564 1337.28 176.973 1347.28 177.488 1351.91C178.003 1356.54 199.032 1355.15 195.174 1350C191.315 1344.86 172.086 1329.47 174.144 1324.59C176.201 1319.7 192.152 1306.58 197.039 1261.41C206.815 1260.27 224.308 1243.55 224.308 1243.55Z" fill="#603814"/>
<g id="Group_9">
<path id="Vector_95" d="M198.637 1239.89C200.494 1240.7 201.283 1243 200.396 1245.03C199.509 1247.05 197.287 1248.02 195.431 1247.21C193.572 1246.4 192.785 1244.1 193.671 1242.08C194.555 1240.06 196.779 1239.08 198.637 1239.89Z" fill="#2D1306"/>
<path id="Vector_96" d="M196.143 1240.05C197.264 1240.54 197.742 1241.93 197.206 1243.16C196.672 1244.38 195.326 1244.97 194.203 1244.47C193.082 1243.98 192.604 1242.59 193.14 1241.37C193.676 1240.15 195.021 1239.56 196.143 1240.05Z" fill="#FDFEFF"/>
</g>
<path id="Vector_97" d="M217.056 1243.41C219.434 1242.61 227.619 1243.15 227.66 1244.47C227.699 1245.8 222.123 1249.96 220.73 1249.81C219.34 1249.66 215.446 1243.68 217.056 1243.41Z" fill="#391F0A"/>
<path id="Vector_98" d="M178.066 1285.18C181.128 1285.53 189.68 1285.37 194.743 1285.09C199.807 1284.81 198.426 1272.5 195.284 1273.03C194.768 1274.26 194.342 1277.1 194.342 1277.1C166.058 1278.53 148.967 1258.32 147.423 1255.83C145.882 1253.33 139.56 1258.41 141.803 1262.16C144.042 1265.91 151.769 1282.25 178.066 1285.18Z" fill="#409F91"/>
<path id="Vector_99" d="M184.239 1231.03C189.641 1219.51 159.544 1218.61 155.427 1234.61C151.31 1250.61 146.165 1293.01 167.637 1300.43C188.613 1304.99 178.837 1242.55 184.239 1231.03Z" fill="#46260F"/>
</g>
</g>
</svg>
