<svg width="225" height="2376" viewBox="0 0 225 2376" fill="none" xmlns="http://www.w3.org/2000/svg">
<rect width="225" height="2376" fill="#1E1E1E"/>
<g id="dog-walk 1" clip-path="url(#clip0_0_1)">
<g id="dog1">
<path id="Vector" d="M151.942 211.412C151.942 211.412 171.199 244.129 176.88 245.447C182.562 246.764 166.851 257.979 165.357 255.885C163.863 253.791 141.741 222.802 141.741 222.802L151.942 211.412Z" fill="#A35318"/>
<path id="Vector_2" d="M50.924 209.846C50.924 209.846 65.504 245.175 70.943 247.277C76.383 249.381 59.133 258.048 57.949 255.766C56.762 253.481 39.22 219.688 39.22 219.688L50.924 209.846Z" fill="#A35318"/>
<path id="Vector_3" d="M214.306 147.953C214.306 147.953 215.398 175.673 184.528 175.093C180.476 174.129 184.528 163.324 184.528 163.324L214.306 147.953Z" fill="#A35318"/>
<path id="Vector_4" d="M39.434 188.407C39.434 188.407 30.732 175.034 24.75 161.527C22.435 171.754 30.172 198.632 30.172 198.632L39.434 188.407Z" fill="#391F0A"/>
<path id="Vector_5" d="M201.257 171.565C198.778 171.565 193.019 171.175 191.286 167.668L192.149 167.242C194.045 171.084 202.248 170.576 202.334 170.576L202.397 171.535C202.323 171.54 201.9 171.565 201.257 171.565Z" fill="#533420"/>
<path id="Vector_6" d="M214.306 147.953C214.306 147.953 192.052 148.852 177.775 131.489C172.18 126.278 168.9 127.373 160.024 130.203C151.148 133.032 137.025 153.164 135.693 170.593C134.363 188.021 50.433 180.752 39.884 186.863C29.336 192.974 25.144 206.018 23.994 212.45C22.846 218.882 5.49302 252.454 6.00902 256.314C6.52502 260.174 26.469 264.626 22.611 260.252C18.752 255.877 36.541 235.682 49.404 228.734C62.266 221.789 116.033 237.738 142.789 236.709C143.562 241.682 126.411 253.621 126.927 258.252C127.442 262.883 150.451 262.73 146.593 257.585C142.734 252.44 162.084 233.878 164.142 228.992C166.199 224.103 182.15 210.984 187.037 165.813C196.812 164.675 214.306 147.953 214.306 147.953Z" fill="#603814"/>
<g id="Group">
<path id="Vector_7" d="M188.635 144.292C190.492 145.107 191.281 147.406 190.394 149.43C189.507 151.448 187.285 152.426 185.429 151.614C183.57 150.798 182.783 148.502 183.669 146.48C184.553 144.458 186.776 143.479 188.635 144.292Z" fill="#2D1306"/>
<path id="Vector_8" d="M186.141 144.455C187.262 144.944 187.74 146.334 187.204 147.559C186.67 148.778 185.324 149.369 184.201 148.877C183.08 148.387 182.602 146.996 183.138 145.775C183.674 144.554 185.019 143.962 186.141 144.455Z" fill="#FDFEFF"/>
</g>
<path id="Vector_9" d="M207.054 147.813C209.432 147.012 217.617 147.554 217.658 148.876C217.697 150.202 212.121 154.367 210.728 154.211C209.337 154.059 205.443 148.084 207.054 147.813Z" fill="#391F0A"/>
<path id="Vector_10" d="M168.063 189.586C171.125 189.928 179.677 189.772 184.74 189.496C189.804 189.217 188.423 176.898 185.281 177.437C184.765 178.66 184.339 181.499 184.339 181.499C156.055 182.93 138.964 162.72 137.42 160.231C135.879 157.732 129.557 162.817 131.8 166.562C134.039 170.312 141.767 186.65 168.063 189.586Z" fill="#409F91"/>
<path id="Vector_11" d="M174.236 135.432C179.638 123.911 149.541 123.016 145.424 139.015C141.307 155.016 136.162 197.411 157.634 204.835C178.61 209.392 168.834 146.952 174.236 135.432Z" fill="#46260F"/>
</g>
<g id="dog2">
<path id="Vector_12" d="M167.311 474.499C167.311 474.499 162.373 512.14 166.043 516.673C169.714 521.206 150.428 520.387 150.537 517.817C150.646 515.248 152.262 477.206 152.262 477.206L167.311 474.499Z" fill="#A35318"/>
<path id="Vector_13" d="M62.6 473.621C62.6 473.621 58.415 511.611 62.176 516.066C65.937 520.524 46.644 519.84 46.701 517.269C46.758 514.695 47.606 476.629 47.606 476.629L62.6 473.621Z" fill="#A35318"/>
<path id="Vector_14" d="M214.13 410.945C214.13 410.945 215.222 438.665 184.352 438.085C180.3 437.121 184.352 426.316 184.352 426.316L214.13 410.945Z" fill="#A35318"/>
<path id="Vector_15" d="M39.258 451.399C39.258 451.399 22.858 438.471 16.876 424.964C14.561 435.191 29.996 461.624 29.996 461.624L39.258 451.399Z" fill="#391F0A"/>
<path id="Vector_16" d="M201.081 434.558C198.602 434.558 192.843 434.168 191.11 430.661L191.973 430.235C193.869 434.077 202.072 433.569 202.158 433.569L202.221 434.528C202.147 434.532 201.725 434.558 201.081 434.558Z" fill="#533420"/>
<path id="Vector_17" d="M214.13 410.945C214.13 410.945 191.876 411.844 177.599 394.481C172.004 389.27 168.724 390.365 159.848 393.195C150.972 396.024 136.849 416.156 135.517 433.585C134.187 451.013 50.257 443.744 39.708 449.855C29.16 455.966 24.968 469.01 23.818 475.442C22.67 481.874 5.317 515.446 5.833 519.306C6.349 523.166 26.293 527.618 22.435 523.244C18.576 518.869 36.365 498.674 49.228 491.726C62.09 484.781 115.857 500.73 142.613 499.701C143.386 504.674 126.235 516.613 126.751 521.244C127.266 525.875 150.275 525.722 146.417 520.577C142.558 515.432 161.908 496.87 163.966 491.984C166.023 487.095 181.974 473.976 186.861 428.805C196.637 427.668 214.13 410.945 214.13 410.945Z" fill="#603814"/>
<g id="Group_2">
<path id="Vector_18" d="M188.459 407.284C190.316 408.099 191.105 410.398 190.218 412.422C189.331 414.44 187.109 415.418 185.253 414.606C183.394 413.79 182.607 411.494 183.493 409.472C184.377 407.451 186.601 406.472 188.459 407.284Z" fill="#2D1306"/>
<path id="Vector_19" d="M185.965 407.447C187.086 407.936 187.564 409.326 187.028 410.551C186.494 411.77 185.148 412.361 184.025 411.869C182.904 411.379 182.426 409.988 182.962 408.767C183.498 407.547 184.843 406.955 185.965 407.447Z" fill="#FDFEFF"/>
</g>
<path id="Vector_20" d="M206.878 410.806C209.256 410.005 217.441 410.547 217.482 411.869C217.521 413.195 211.945 417.36 210.552 417.204C209.161 417.052 205.268 411.077 206.878 410.806Z" fill="#391F0A"/>
<path id="Vector_21" d="M167.888 452.579C170.95 452.921 179.502 452.765 184.565 452.489C189.629 452.21 188.248 439.891 185.106 440.43C184.59 441.653 184.164 444.492 184.164 444.492C155.88 445.923 138.789 425.713 137.245 423.224C135.704 420.725 129.382 425.81 131.625 429.555C133.863 433.305 141.591 449.643 167.888 452.579Z" fill="#409F91"/>
<path id="Vector_22" d="M174.061 398.425C179.463 386.904 149.366 386.009 145.249 402.008C141.132 418.009 135.987 460.404 157.459 467.828C178.435 472.385 168.658 409.944 174.061 398.425Z" fill="#46260F"/>
</g>
<g id="dog3">
<path id="Vector_23" d="M161.935 748.048C161.935 748.048 135.606 775.398 135.866 781.224C136.127 787.051 121.097 774.937 122.712 772.935C124.326 770.932 148.221 741.287 148.221 741.287L161.935 748.048Z" fill="#A35318"/>
<path id="Vector_24" d="M50.022 752.446C50.022 752.446 19.64 775.633 19.009 781.429C18.378 787.227 5.55999 772.791 7.45999 771.058C9.36199 769.324 37.499 743.671 37.499 743.671L50.022 752.446Z" fill="#A35318"/>
<path id="Vector_25" d="M214.827 676.019C214.827 676.019 215.919 703.739 185.049 703.159C180.997 702.195 185.049 691.39 185.049 691.39L214.827 676.019Z" fill="#A35318"/>
<path id="Vector_26" d="M39.955 716.473C39.955 716.473 18.231 710.976 12.25 697.47C9.935 707.697 30.693 726.699 30.693 726.699L39.955 716.473Z" fill="#391F0A"/>
<path id="Vector_27" d="M201.778 699.631C199.299 699.631 193.54 699.241 191.807 695.734L192.67 695.308C194.566 699.15 202.769 698.642 202.855 698.642L202.918 699.601C202.845 699.605 202.422 699.631 201.778 699.631Z" fill="#533420"/>
<path id="Vector_28" d="M214.827 676.019C214.827 676.019 192.573 676.918 178.296 659.555C172.701 654.344 169.421 655.439 160.545 658.269C151.669 661.098 137.546 681.23 136.214 698.659C134.884 716.087 50.954 708.818 40.405 714.929C29.857 721.04 25.665 734.084 24.515 740.516C23.367 746.948 25.74 782.268 26.255 786.128C26.77 789.988 48.122 790.503 44.264 786.128C40.405 781.753 37.061 763.747 49.924 756.8C62.786 749.855 116.553 765.804 143.309 764.775C144.082 769.748 146.137 781.498 146.653 786.129C147.168 790.76 167.104 790.887 163.246 785.742C159.387 780.597 162.604 761.945 164.662 757.058C166.719 752.169 182.67 739.05 187.557 693.879C197.334 692.741 214.827 676.019 214.827 676.019Z" fill="#603814"/>
<g id="Group_3">
<path id="Vector_29" d="M189.156 672.357C191.013 673.172 191.802 675.471 190.915 677.495C190.028 679.513 187.806 680.491 185.95 679.679C184.091 678.863 183.304 676.567 184.19 674.545C185.074 672.524 187.298 671.545 189.156 672.357Z" fill="#2D1306"/>
<path id="Vector_30" d="M186.662 672.521C187.783 673.01 188.261 674.4 187.725 675.625C187.191 676.844 185.845 677.435 184.722 676.943C183.601 676.453 183.123 675.062 183.659 673.841C184.195 672.62 185.54 672.028 186.662 672.521Z" fill="#FDFEFF"/>
</g>
<path id="Vector_31" d="M207.575 675.879C209.953 675.078 218.138 675.62 218.179 676.942C218.218 678.268 212.642 682.433 211.249 682.277C209.858 682.125 205.965 676.15 207.575 675.879Z" fill="#391F0A"/>
<path id="Vector_32" d="M168.585 717.652C171.647 717.994 180.199 717.838 185.262 717.562C190.326 717.283 188.945 704.964 185.803 705.503C185.287 706.726 184.861 709.565 184.861 709.565C156.577 710.996 139.486 690.786 137.942 688.297C136.401 685.798 130.079 690.883 132.322 694.628C134.561 698.378 142.288 714.716 168.585 717.652Z" fill="#409F91"/>
<path id="Vector_33" d="M174.758 663.498C180.16 651.977 150.063 651.082 145.946 667.081C141.829 683.082 136.684 725.477 158.156 732.901C179.132 737.458 169.355 675.018 174.758 663.498Z" fill="#46260F"/>
</g>
<g id="dog4">
<path id="Vector_34" d="M160.36 1016.4C160.36 1016.4 133.991 1043.72 134.242 1049.54C134.494 1055.37 119.483 1043.23 121.1 1041.23C122.717 1039.23 146.655 1009.62 146.655 1009.62L160.36 1016.4Z" fill="#A35318"/>
<path id="Vector_35" d="M54.876 1016.13C54.876 1016.13 28.592 1043.88 28.897 1049.7C29.201 1055.52 14.239 1043.32 15.838 1041.31C17.439 1039.29 41.11 1009.47 41.11 1009.47L54.876 1016.13Z" fill="#A35318"/>
<path id="Vector_36" d="M213.749 941.894C213.749 941.894 214.841 969.614 183.971 969.034C179.919 968.07 183.971 957.265 183.971 957.265L213.749 941.894Z" fill="#A35318"/>
<path id="Vector_37" d="M38.877 982.348C38.877 982.348 22.477 969.42 16.495 955.913C14.18 966.14 29.615 992.573 29.615 992.573L38.877 982.348Z" fill="#391F0A"/>
<path id="Vector_38" d="M200.7 965.506C198.221 965.506 192.462 965.116 190.729 961.609L191.592 961.183C193.488 965.025 201.691 964.517 201.777 964.517L201.84 965.476C201.767 965.481 201.344 965.506 200.7 965.506Z" fill="#533420"/>
<path id="Vector_39" d="M213.749 941.894C213.749 941.894 191.495 942.793 177.218 925.43C171.623 920.219 168.343 921.314 159.467 924.144C150.591 926.973 136.468 947.105 135.136 964.534C133.806 981.962 49.876 974.693 39.327 980.804C28.779 986.915 23.401 1009.82 22.252 1016.25C21.104 1022.68 46.787 1048.4 42.299 1053.56C39.744 1056.5 69.117 1052.72 65.259 1048.35C61.4 1043.97 45.358 1027.88 58.221 1020.93C71.083 1013.99 115.476 1031.68 142.232 1030.65C143.005 1035.62 166.414 1045.62 166.929 1050.25C167.444 1054.89 188.473 1053.49 184.615 1048.35C180.756 1043.2 161.527 1027.82 163.585 1022.93C165.642 1018.04 181.593 1004.92 186.48 959.752C196.256 958.617 213.749 941.894 213.749 941.894Z" fill="#603814"/>
<g id="Group_4">
<path id="Vector_40" d="M188.078 938.233C189.935 939.048 190.724 941.347 189.837 943.371C188.95 945.389 186.728 946.367 184.872 945.555C183.013 944.739 182.226 942.443 183.112 940.421C183.996 938.4 186.22 937.42 188.078 938.233Z" fill="#2D1306"/>
<path id="Vector_41" d="M185.584 938.396C186.705 938.885 187.183 940.275 186.647 941.5C186.113 942.719 184.767 943.31 183.644 942.818C182.523 942.328 182.045 940.937 182.581 939.716C183.117 938.496 184.462 937.904 185.584 938.396Z" fill="#FDFEFF"/>
</g>
<path id="Vector_42" d="M206.497 941.754C208.875 940.953 217.06 941.495 217.101 942.817C217.14 944.143 211.564 948.308 210.171 948.152C208.78 948 204.887 942.026 206.497 941.754Z" fill="#391F0A"/>
<path id="Vector_43" d="M167.507 983.528C170.569 983.87 179.121 983.714 184.184 983.438C189.248 983.159 187.867 970.84 184.725 971.379C184.209 972.602 183.783 975.441 183.783 975.441C155.499 976.872 138.408 956.662 136.864 954.173C135.323 951.674 129.001 956.759 131.244 960.504C133.482 964.253 141.21 980.591 167.507 983.528Z" fill="#409F91"/>
<path id="Vector_44" d="M173.68 929.374C179.082 917.853 148.985 916.958 144.868 932.957C140.751 948.958 135.606 991.353 157.078 998.777C178.054 1003.33 168.277 940.893 173.68 929.374Z" fill="#46260F"/>
</g>
<g id="dog5">
<path id="Vector_45" d="M173.873 1267.96C173.873 1267.96 170.537 1305.78 174.395 1310.15C178.254 1314.53 158.952 1314.53 158.952 1311.96C158.952 1309.38 158.952 1271.31 158.952 1271.31L173.873 1267.96Z" fill="#A35318"/>
<path id="Vector_46" d="M61.709 1269.77C61.709 1269.77 58.373 1307.84 62.231 1312.21C66.09 1316.59 46.787 1316.33 46.787 1313.76C46.787 1311.19 46.787 1273.11 46.787 1273.11L61.709 1269.77Z" fill="#A35318"/>
<path id="Vector_47" d="M213.749 1207.25C213.749 1207.25 214.841 1234.97 183.971 1234.39C179.919 1233.43 183.971 1222.62 183.971 1222.62L213.749 1207.25Z" fill="#A35318"/>
<path id="Vector_48" d="M38.877 1247.71C38.877 1247.71 29.109 1232.37 23.127 1218.87C20.812 1229.09 29.615 1257.93 29.615 1257.93L38.877 1247.71Z" fill="#391F0A"/>
<path id="Vector_49" d="M200.7 1230.86C198.221 1230.86 192.462 1230.47 190.729 1226.97L191.592 1226.54C193.488 1230.38 201.691 1229.88 201.777 1229.88L201.84 1230.83C201.767 1230.84 201.344 1230.86 200.7 1230.86Z" fill="#533420"/>
<path id="Vector_50" d="M213.749 1207.25C213.749 1207.25 191.495 1208.15 177.218 1190.79C171.623 1185.58 168.343 1186.67 159.467 1189.5C150.591 1192.33 136.468 1212.46 135.136 1229.89C133.806 1247.32 49.876 1240.05 39.327 1246.16C28.779 1252.27 24.587 1265.32 23.437 1271.75C22.289 1278.18 24.662 1313.5 25.177 1317.36C25.692 1321.22 47.044 1321.74 43.186 1317.36C39.327 1312.99 35.983 1294.98 48.846 1288.03C61.708 1281.09 115.475 1297.04 142.231 1296.01C143.004 1300.98 145.059 1312.73 145.575 1317.36C146.09 1321.99 166.026 1322.12 162.168 1316.97C158.309 1311.83 161.526 1293.18 163.584 1288.29C165.641 1283.4 181.592 1270.28 186.479 1225.11C196.256 1223.98 213.749 1207.25 213.749 1207.25Z" fill="#603814"/>
<g id="Group_5">
<path id="Vector_51" d="M188.078 1203.59C189.935 1204.41 190.724 1206.71 189.837 1208.73C188.95 1210.75 186.728 1211.73 184.872 1210.91C183.013 1210.1 182.226 1207.8 183.112 1205.78C183.996 1203.76 186.22 1202.78 188.078 1203.59Z" fill="#2D1306"/>
<path id="Vector_52" d="M185.584 1203.75C186.705 1204.24 187.183 1205.63 186.647 1206.86C186.113 1208.08 184.767 1208.67 183.644 1208.18C182.523 1207.69 182.045 1206.3 182.581 1205.07C183.117 1203.85 184.462 1203.26 185.584 1203.75Z" fill="#FDFEFF"/>
</g>
<path id="Vector_53" d="M206.497 1207.11C208.875 1206.31 217.06 1206.85 217.101 1208.17C217.14 1209.5 211.564 1213.67 210.171 1213.51C208.78 1213.36 204.887 1207.38 206.497 1207.11Z" fill="#391F0A"/>
<path id="Vector_54" d="M167.507 1248.89C170.569 1249.23 179.121 1249.07 184.184 1248.8C189.248 1248.52 187.867 1236.2 184.725 1236.74C184.209 1237.96 183.783 1240.8 183.783 1240.8C155.499 1242.23 138.408 1222.02 136.864 1219.53C135.323 1217.03 129.001 1222.12 131.244 1225.86C133.482 1229.61 141.21 1245.95 167.507 1248.89Z" fill="#409F91"/>
<path id="Vector_55" d="M173.68 1194.73C179.082 1183.21 148.985 1182.32 144.868 1198.31C140.751 1214.32 135.606 1256.71 157.078 1264.13C178.054 1268.69 168.277 1206.25 173.68 1194.73Z" fill="#46260F"/>
</g>
<g id="dog6">
<path id="Vector_56" d="M151.954 1532.84C151.954 1532.84 171.211 1565.56 176.892 1566.88C182.574 1568.19 166.863 1579.41 165.369 1577.31C163.875 1575.22 141.753 1544.23 141.753 1544.23L151.954 1532.84Z" fill="#A35318"/>
<path id="Vector_57" d="M50.936 1531.27C50.936 1531.27 65.516 1566.6 70.955 1568.71C76.395 1570.81 59.145 1579.48 57.961 1577.19C56.774 1574.91 39.232 1541.12 39.232 1541.12L50.936 1531.27Z" fill="#A35318"/>
<path id="Vector_58" d="M214.317 1469.38C214.317 1469.38 215.409 1497.1 184.539 1496.52C180.487 1495.56 184.539 1484.75 184.539 1484.75L214.317 1469.38Z" fill="#A35318"/>
<path id="Vector_59" d="M39.445 1509.84C39.445 1509.84 23.045 1496.91 17.063 1483.4C14.748 1493.63 30.183 1520.06 30.183 1520.06L39.445 1509.84Z" fill="#391F0A"/>
<path id="Vector_60" d="M201.269 1492.99C198.79 1492.99 193.031 1492.6 191.298 1489.1L192.161 1488.67C194.057 1492.51 202.26 1492.01 202.346 1492.01L202.409 1492.96C202.335 1492.97 201.912 1492.99 201.269 1492.99Z" fill="#533420"/>
<path id="Vector_61" d="M214.317 1469.38C214.317 1469.38 192.063 1470.28 177.786 1452.92C172.191 1447.71 168.911 1448.8 160.035 1451.63C151.159 1454.46 137.036 1474.59 135.704 1492.02C134.374 1509.45 50.444 1502.18 39.895 1508.29C29.347 1514.4 25.155 1527.45 24.005 1533.88C22.857 1540.31 5.50401 1573.88 6.02001 1577.74C6.53601 1581.6 26.48 1586.06 22.622 1581.68C18.763 1577.31 36.552 1557.11 49.415 1550.16C62.277 1543.22 116.044 1559.17 142.8 1558.14C143.573 1563.11 126.422 1575.05 126.938 1579.68C127.453 1584.31 150.462 1584.16 146.604 1579.02C142.745 1573.87 162.095 1555.31 164.153 1550.42C166.21 1545.53 182.161 1532.41 187.048 1487.24C196.824 1486.11 214.317 1469.38 214.317 1469.38Z" fill="#603814"/>
<g id="Group_6">
<path id="Vector_62" d="M188.646 1465.72C190.503 1466.54 191.292 1468.84 190.405 1470.86C189.518 1472.88 187.296 1473.86 185.44 1473.04C183.581 1472.23 182.794 1469.93 183.68 1467.91C184.564 1465.89 186.788 1464.91 188.646 1465.72Z" fill="#2D1306"/>
<path id="Vector_63" d="M186.152 1465.88C187.273 1466.37 187.751 1467.76 187.215 1468.99C186.681 1470.21 185.335 1470.8 184.212 1470.31C183.091 1469.82 182.613 1468.43 183.149 1467.2C183.686 1465.98 185.03 1465.39 186.152 1465.88Z" fill="#FDFEFF"/>
</g>
<path id="Vector_64" d="M207.065 1469.24C209.443 1468.44 217.628 1468.98 217.669 1470.31C217.708 1471.63 212.132 1475.8 210.739 1475.64C209.349 1475.49 205.455 1469.51 207.065 1469.24Z" fill="#391F0A"/>
<path id="Vector_65" d="M168.075 1511.02C171.137 1511.36 179.689 1511.2 184.752 1510.93C189.816 1510.65 188.435 1498.33 185.293 1498.87C184.777 1500.09 184.351 1502.93 184.351 1502.93C156.067 1504.36 138.976 1484.15 137.432 1481.66C135.891 1479.16 129.569 1484.25 131.812 1487.99C134.051 1491.74 141.778 1508.08 168.075 1511.02Z" fill="#409F91"/>
<path id="Vector_66" d="M174.248 1456.86C179.65 1445.34 149.553 1444.44 145.436 1460.44C141.319 1476.44 136.174 1518.84 157.646 1526.26C178.622 1530.82 168.846 1468.38 174.248 1456.86Z" fill="#46260F"/>
</g>
<g id="dog7">
<path id="Vector_67" d="M167.498 1798.44C167.498 1798.44 162.56 1836.09 166.23 1840.62C169.901 1845.15 150.615 1844.33 150.724 1841.76C150.833 1839.19 152.449 1801.15 152.449 1801.15L167.498 1798.44Z" fill="#A35318"/>
<path id="Vector_68" d="M62.787 1797.57C62.787 1797.57 58.602 1835.56 62.363 1840.01C66.124 1844.47 46.831 1843.79 46.888 1841.22C46.945 1838.64 47.793 1800.58 47.793 1800.58L62.787 1797.57Z" fill="#A35318"/>
<path id="Vector_69" d="M214.317 1734.89C214.317 1734.89 215.409 1762.61 184.539 1762.03C180.487 1761.07 184.539 1750.26 184.539 1750.26L214.317 1734.89Z" fill="#A35318"/>
<path id="Vector_70" d="M39.445 1775.35C39.445 1775.35 19.231 1772.01 13.25 1758.5C10.935 1768.73 30.184 1785.57 30.184 1785.57L39.445 1775.35Z" fill="#391F0A"/>
<path id="Vector_71" d="M201.269 1758.51C198.79 1758.51 193.031 1758.12 191.298 1754.61L192.161 1754.18C194.057 1758.02 202.26 1757.52 202.346 1757.52L202.409 1758.48C202.335 1758.48 201.912 1758.51 201.269 1758.51Z" fill="#533420"/>
<path id="Vector_72" d="M214.317 1734.89C214.317 1734.89 192.063 1735.79 177.786 1718.43C172.191 1713.22 168.911 1714.31 160.035 1717.14C151.159 1719.97 137.036 1740.1 135.704 1757.53C134.374 1774.96 50.444 1767.69 39.895 1773.8C29.347 1779.91 25.155 1792.96 24.005 1799.39C22.857 1805.82 5.50401 1839.39 6.02001 1843.25C6.53601 1847.11 26.48 1851.56 22.622 1847.19C18.763 1842.82 36.552 1822.62 49.415 1815.67C62.277 1808.73 116.044 1824.68 142.8 1823.65C143.573 1828.62 126.422 1840.56 126.938 1845.19C127.453 1849.82 150.462 1849.67 146.604 1844.52C142.745 1839.38 162.095 1820.82 164.153 1815.93C166.21 1811.04 182.161 1797.92 187.048 1752.75C196.824 1751.61 214.317 1734.89 214.317 1734.89Z" fill="#603814"/>
<g id="Group_7">
<path id="Vector_73" d="M188.646 1731.23C190.503 1732.05 191.292 1734.34 190.405 1736.37C189.518 1738.39 187.296 1739.36 185.44 1738.55C183.581 1737.74 182.794 1735.44 183.68 1733.42C184.564 1731.4 186.788 1730.42 188.646 1731.23Z" fill="#2D1306"/>
<path id="Vector_74" d="M186.152 1731.39C187.273 1731.88 187.751 1733.27 187.215 1734.5C186.681 1735.72 185.335 1736.31 184.212 1735.82C183.091 1735.33 182.613 1733.94 183.149 1732.71C183.686 1731.49 185.03 1730.9 186.152 1731.39Z" fill="#FDFEFF"/>
</g>
<path id="Vector_75" d="M207.065 1734.75C209.443 1733.95 217.628 1734.49 217.669 1735.82C217.708 1737.14 212.132 1741.31 210.739 1741.15C209.349 1741 205.455 1735.02 207.065 1734.75Z" fill="#391F0A"/>
<path id="Vector_76" d="M168.075 1776.53C171.137 1776.87 179.689 1776.71 184.752 1776.44C189.816 1776.16 188.435 1763.84 185.293 1764.38C184.777 1765.6 184.351 1768.44 184.351 1768.44C156.067 1769.87 138.976 1749.66 137.432 1747.17C135.891 1744.67 129.569 1749.76 131.812 1753.5C134.051 1757.25 141.778 1773.59 168.075 1776.53Z" fill="#409F91"/>
<path id="Vector_77" d="M174.248 1722.37C179.65 1710.85 149.553 1709.96 145.436 1725.96C141.319 1741.96 136.174 1784.35 157.646 1791.78C178.622 1796.33 168.846 1733.89 174.248 1722.37Z" fill="#46260F"/>
</g>
<g id="dog8">
<path id="Vector_78" d="M161.675 2068.95C161.675 2068.95 135.346 2096.3 135.606 2102.12C135.867 2107.95 120.837 2095.84 122.452 2093.83C124.066 2091.83 147.961 2062.19 147.961 2062.19L161.675 2068.95Z" fill="#A35318"/>
<path id="Vector_79" d="M49.763 2073.34C49.763 2073.34 19.381 2096.53 18.75 2102.33C18.119 2108.12 5.30102 2093.69 7.20102 2091.96C9.10302 2090.22 37.24 2064.57 37.24 2064.57L49.763 2073.34Z" fill="#A35318"/>
<path id="Vector_80" d="M214.567 1996.92C214.567 1996.92 215.659 2024.64 184.789 2024.06C180.737 2023.09 184.789 2012.29 184.789 2012.29L214.567 1996.92Z" fill="#A35318"/>
<path id="Vector_81" d="M39.695 2037.37C39.695 2037.37 23.295 2024.44 17.313 2010.94C14.998 2021.16 30.433 2047.59 30.433 2047.59L39.695 2037.37Z" fill="#391F0A"/>
<path id="Vector_82" d="M201.519 2020.53C199.04 2020.53 193.281 2020.14 191.548 2016.63L192.411 2016.2C194.307 2020.05 202.51 2019.54 202.596 2019.54L202.659 2020.5C202.585 2020.5 202.162 2020.53 201.519 2020.53Z" fill="#533420"/>
<path id="Vector_83" d="M214.567 1996.92C214.567 1996.92 192.313 1997.82 178.036 1980.45C172.441 1975.24 169.161 1976.34 160.285 1979.17C151.409 1982 137.286 2002.13 135.954 2019.56C134.624 2036.98 50.694 2029.72 40.145 2035.83C29.597 2041.94 25.405 2054.98 24.255 2061.41C23.107 2067.85 25.48 2103.17 25.995 2107.02C26.51 2110.88 47.862 2111.4 44.004 2107.02C40.145 2102.65 36.801 2084.64 49.664 2077.7C62.526 2070.75 116.293 2086.7 143.049 2085.67C143.822 2090.65 145.877 2102.39 146.393 2107.03C146.908 2111.66 166.844 2111.78 162.986 2106.64C159.127 2101.49 162.344 2082.84 164.402 2077.96C166.459 2073.07 182.41 2059.95 187.297 2014.78C197.074 2013.64 214.567 1996.92 214.567 1996.92Z" fill="#603814"/>
<g id="Group_8">
<path id="Vector_84" d="M188.896 1993.26C190.753 1994.07 191.542 1996.37 190.655 1998.39C189.768 2000.41 187.546 2001.39 185.69 2000.58C183.831 1999.76 183.044 1997.47 183.93 1995.44C184.814 1993.42 187.038 1992.44 188.896 1993.26Z" fill="#2D1306"/>
<path id="Vector_85" d="M186.402 1993.42C187.523 1993.91 188.001 1995.3 187.465 1996.52C186.931 1997.74 185.585 1998.33 184.462 1997.84C183.341 1997.35 182.863 1995.96 183.399 1994.74C183.936 1993.52 185.28 1992.93 186.402 1993.42Z" fill="#FDFEFF"/>
</g>
<path id="Vector_86" d="M207.315 1996.78C209.693 1995.97 217.878 1996.52 217.919 1997.84C217.958 1999.16 212.382 2003.33 210.989 2003.17C209.599 2003.02 205.705 1997.05 207.315 1996.78Z" fill="#391F0A"/>
<path id="Vector_87" d="M168.325 2038.55C171.387 2038.89 179.939 2038.74 185.002 2038.46C190.066 2038.18 188.685 2025.86 185.543 2026.4C185.027 2027.62 184.601 2030.46 184.601 2030.46C156.317 2031.89 139.226 2011.68 137.682 2009.19C136.141 2006.7 129.819 2011.78 132.062 2015.53C134.301 2019.27 142.028 2035.61 168.325 2038.55Z" fill="#409F91"/>
<path id="Vector_88" d="M174.498 1984.4C179.9 1972.87 149.803 1971.98 145.686 1987.98C141.569 2003.98 136.424 2046.38 157.896 2053.8C178.872 2058.36 169.096 1995.91 174.498 1984.4Z" fill="#46260F"/>
</g>
<g id="dog9">
<path id="Vector_89" d="M160.101 2337.3C160.101 2337.3 133.732 2364.61 133.983 2370.44C134.235 2376.27 119.224 2364.13 120.841 2362.13C122.458 2360.13 146.396 2330.52 146.396 2330.52L160.101 2337.3Z" fill="#A35318"/>
<path id="Vector_90" d="M54.616 2337.03C54.616 2337.03 28.332 2364.77 28.637 2370.6C28.941 2376.42 13.979 2364.22 15.578 2362.21C17.179 2360.19 40.85 2330.37 40.85 2330.37L54.616 2337.03Z" fill="#A35318"/>
<path id="Vector_91" d="M213.489 2262.79C213.489 2262.79 214.581 2290.51 183.711 2289.93C179.659 2288.97 183.711 2278.16 183.711 2278.16L213.489 2262.79Z" fill="#A35318"/>
<path id="Vector_92" d="M38.617 2303.25C38.617 2303.25 22.217 2290.32 16.235 2276.81C13.92 2287.04 29.355 2313.47 29.355 2313.47L38.617 2303.25Z" fill="#391F0A"/>
<path id="Vector_93" d="M200.44 2286.4C197.961 2286.4 192.202 2286.01 190.469 2282.51L191.332 2282.08C193.228 2285.92 201.431 2285.42 201.517 2285.42L201.58 2286.37C201.507 2286.38 201.084 2286.4 200.44 2286.4Z" fill="#533420"/>
<path id="Vector_94" d="M213.489 2262.79C213.489 2262.79 191.235 2263.69 176.958 2246.33C171.363 2241.12 168.083 2242.21 159.207 2245.04C150.331 2247.87 136.208 2268 134.876 2285.43C133.546 2302.86 49.616 2295.59 39.067 2301.7C28.519 2307.81 23.141 2330.72 21.992 2337.15C20.844 2343.58 46.527 2369.3 42.039 2374.46C39.484 2377.4 68.857 2373.62 64.999 2369.24C61.14 2364.87 45.098 2348.77 57.961 2341.83C70.823 2334.88 115.216 2352.57 141.972 2351.55C142.745 2356.52 166.154 2366.52 166.669 2371.15C167.184 2375.78 188.213 2374.39 184.355 2369.24C180.496 2364.1 161.267 2348.72 163.325 2343.83C165.382 2338.94 181.333 2325.82 186.22 2280.65C195.996 2279.51 213.489 2262.79 213.489 2262.79Z" fill="#603814"/>
<g id="Group_9">
<path id="Vector_95" d="M187.818 2259.13C189.675 2259.95 190.464 2262.24 189.577 2264.27C188.69 2266.29 186.468 2267.26 184.612 2266.45C182.753 2265.64 181.966 2263.34 182.852 2261.32C183.736 2259.3 185.96 2258.32 187.818 2259.13Z" fill="#2D1306"/>
<path id="Vector_96" d="M185.324 2259.29C186.445 2259.78 186.923 2261.17 186.387 2262.4C185.853 2263.62 184.507 2264.21 183.384 2263.72C182.263 2263.23 181.785 2261.83 182.321 2260.61C182.857 2259.39 184.202 2258.8 185.324 2259.29Z" fill="#FDFEFF"/>
</g>
<path id="Vector_97" d="M206.237 2262.65C208.615 2261.85 216.8 2262.39 216.841 2263.72C216.88 2265.04 211.304 2269.21 209.911 2269.05C208.521 2268.9 204.627 2262.92 206.237 2262.65Z" fill="#391F0A"/>
<path id="Vector_98" d="M167.247 2304.43C170.309 2304.77 178.861 2304.61 183.924 2304.34C188.988 2304.06 187.607 2291.74 184.465 2292.28C183.949 2293.5 183.523 2296.34 183.523 2296.34C155.239 2297.77 138.148 2277.56 136.604 2275.07C135.063 2272.57 128.741 2277.66 130.984 2281.4C133.223 2285.15 140.95 2301.49 167.247 2304.43Z" fill="#409F91"/>
<path id="Vector_99" d="M173.42 2250.27C178.822 2238.75 148.725 2237.85 144.608 2253.85C140.491 2269.85 135.346 2312.25 156.818 2319.68C177.794 2324.23 168.018 2261.79 173.42 2250.27Z" fill="#46260F"/>
</g>
</g>
<defs>
<clipPath id="clip0_0_1">
<rect width="224.334" height="2375.5" fill="white"/>
</clipPath>
</defs>
</svg>
