<svg width="244" height="1373" fill="none" xmlns="http://www.w3.org/2000/svg"><g id="dog-walk 1"><g id="dog1"><path id="Vector" d="M161.944 100.533s19.257 32.717 24.938 34.035c5.682 1.317-10.029 12.532-11.523 10.438l-23.616-33.083 10.201-11.39Z" fill="#A35318"/><path id="Vector_2" d="M60.926 98.967s14.58 35.329 20.02 37.431c5.44 2.104-11.81 10.771-12.995 8.489l-18.729-36.078 11.704-9.842Z" fill="#A35318"/><path id="Vector_3" d="M224.308 37.074s1.092 27.72-29.778 27.14c-4.052-.964 0-11.769 0-11.769l29.778-15.37Z" fill="#A35318"/><path id="Vector_4" d="M49.436 77.528s-8.702-13.373-14.684-26.88c-2.315 10.227 5.422 37.105 5.422 37.105l9.262-10.225Z" fill="#391F0A"/><path id="Vector_5" d="M211.259 60.686c-2.479 0-8.238-.39-9.971-3.897l.863-.426c1.896 3.842 10.099 3.334 10.185 3.334l.063.959c-.074.005-.497.03-1.14.03Z" fill="#533420"/><path id="Vector_6" d="M224.308 37.074s-22.254.899-36.531-16.464c-5.595-5.211-8.875-4.116-17.751-1.286-8.876 2.829-22.999 22.961-24.331 40.39-1.33 17.428-85.26 10.159-95.809 16.27-10.548 6.111-14.74 19.155-15.89 25.587-1.148 6.432-18.5 40.004-17.985 43.864.516 3.86 20.46 8.312 16.602 3.938-3.859-4.375 13.93-24.57 26.793-31.518 12.862-6.945 66.629 9.004 93.385 7.975.773 4.973-16.378 16.912-15.862 21.543.515 4.631 23.524 4.478 19.666-.667-3.859-5.145 15.491-23.707 17.549-28.593 2.057-4.889 18.008-18.008 22.895-63.179 9.775-1.138 27.269-17.86 27.269-17.86Z" fill="#603814"/><g id="Group"><path id="Vector_7" d="M198.637 33.413c1.857.815 2.646 3.114 1.759 5.138-.887 2.018-3.109 2.996-4.965 2.184-1.859-.816-2.646-3.112-1.76-5.134.884-2.022 3.107-3.001 4.966-2.188Z" fill="#2D1306"/><path id="Vector_8" d="M196.143 33.576c1.121.49 1.599 1.88 1.063 3.104-.534 1.22-1.88 1.81-3.003 1.318-1.121-.49-1.599-1.88-1.063-3.102.536-1.22 1.881-1.813 3.003-1.32Z" fill="#FDFEFF"/></g><path id="Vector_9" d="M217.056 36.934c2.378-.8 10.563-.259 10.604 1.063.039 1.326-5.537 5.491-6.93 5.335-1.391-.152-5.285-6.127-3.674-6.398Z" fill="#391F0A"/><path id="Vector_10" d="M178.065 78.707c3.062.342 11.614.186 16.677-.09 5.064-.279 3.683-12.598.541-12.059-.516 1.223-.942 4.062-.942 4.062-28.284 1.431-45.375-18.779-46.919-21.268-1.541-2.499-7.863 2.586-5.62 6.331 2.239 3.75 9.967 20.088 36.263 23.024Z" fill="#409F91"/><path id="Vector_11" d="M184.238 24.553c5.402-11.52-24.695-12.416-28.812 3.583-4.117 16.001-9.262 58.396 12.21 65.82 20.976 4.557 11.2-57.883 16.602-69.403Z" fill="#46260F"/></g><g id="dog2"><path id="Vector_12" d="M177.489 251.809s-4.938 37.641-1.268 42.174c3.671 4.533-15.615 3.714-15.506 1.144l1.725-40.611 15.049-2.707Z" fill="#A35318"/><path id="Vector_13" d="M72.778 250.931s-4.185 37.99-.424 42.445c3.761 4.458-15.532 3.774-15.475 1.203l.905-40.64 14.994-3.008Z" fill="#A35318"/><path id="Vector_14" d="M224.308 188.255s1.092 27.72-29.778 27.14c-4.052-.964 0-11.769 0-11.769l29.778-15.371Z" fill="#A35318"/><path id="Vector_15" d="M49.436 228.709s-16.4-12.928-22.382-26.435c-2.315 10.227 13.12 36.66 13.12 36.66l9.262-10.225Z" fill="#391F0A"/><path id="Vector_16" d="M211.259 211.868c-2.479 0-8.238-.39-9.971-3.897l.863-.426c1.896 3.842 10.099 3.334 10.185 3.334l.063.959c-.074.004-.496.03-1.14.03Z" fill="#533420"/><path id="Vector_17" d="M224.308 188.255s-22.254.899-36.531-16.464c-5.595-5.211-8.875-4.116-17.751-1.286-8.876 2.829-22.999 22.961-24.331 40.39-1.33 17.428-85.26 10.159-95.809 16.27-10.548 6.111-14.74 19.155-15.89 25.587-1.148 6.432-18.5 40.004-17.985 43.864.516 3.86 20.46 8.312 16.602 3.938-3.859-4.375 13.93-24.57 26.793-31.518 12.862-6.945 66.629 9.004 93.385 7.975.773 4.973-16.378 16.912-15.862 21.543.515 4.631 23.524 4.478 19.666-.667-3.859-5.145 15.491-23.707 17.549-28.593 2.057-4.889 18.008-18.008 22.895-63.179 9.776-1.137 27.269-17.86 27.269-17.86Z" fill="#603814"/><g id="Group_2"><path id="Vector_18" d="M198.637 184.594c1.857.815 2.646 3.114 1.759 5.138-.887 2.018-3.109 2.996-4.965 2.184-1.859-.816-2.646-3.112-1.76-5.134.884-2.021 3.108-3 4.966-2.188Z" fill="#2D1306"/><path id="Vector_19" d="M196.143 184.757c1.121.489 1.599 1.879 1.063 3.104-.534 1.219-1.88 1.81-3.003 1.318-1.121-.49-1.599-1.881-1.063-3.102.536-1.22 1.881-1.812 3.003-1.32Z" fill="#FDFEFF"/></g><path id="Vector_20" d="M217.056 188.116c2.378-.801 10.563-.259 10.604 1.063.039 1.326-5.537 5.491-6.93 5.335-1.391-.152-5.284-6.127-3.674-6.398Z" fill="#391F0A"/><path id="Vector_21" d="M178.066 229.889c3.062.342 11.614.186 16.677-.09 5.064-.279 3.683-12.598.541-12.059-.516 1.223-.942 4.062-.942 4.062-28.284 1.431-45.375-18.779-46.919-21.268-1.541-2.499-7.863 2.586-5.62 6.331 2.238 3.75 9.966 20.088 36.263 23.024Z" fill="#409F91"/><path id="Vector_22" d="M184.239 175.735c5.402-11.521-24.695-12.416-28.812 3.583-4.117 16.001-9.262 58.396 12.21 65.82 20.976 4.557 11.199-57.884 16.602-69.403Z" fill="#46260F"/></g><g id="dog3"><path id="Vector_23" d="M171.416 411.466s-26.329 27.35-26.069 33.176c.261 5.827-14.769-6.287-13.154-8.289l25.509-31.648 13.714 6.761Z" fill="#A35318"/><path id="Vector_24" d="M59.503 415.863S29.121 439.05 28.49 444.846c-.63 5.798-13.449-8.638-11.549-10.371l30.04-27.387 12.522 8.775Z" fill="#A35318"/><path id="Vector_25" d="M224.308 339.437s1.092 27.72-29.778 27.14c-4.052-.964 0-11.769 0-11.769l29.778-15.371Z" fill="#A35318"/><path id="Vector_26" d="M49.436 379.891s-21.724-5.498-27.705-19.004c-2.315 10.227 18.443 29.229 18.443 29.229l9.262-10.225Z" fill="#391F0A"/><path id="Vector_27" d="M211.259 363.049c-2.479 0-8.238-.39-9.971-3.897l.863-.426c1.896 3.842 10.099 3.334 10.185 3.334l.063.959c-.073.004-.496.03-1.14.03Z" fill="#533420"/><path id="Vector_28" d="M224.308 339.437s-22.254.899-36.531-16.464c-5.595-5.211-8.875-4.116-17.751-1.286-8.876 2.829-22.999 22.961-24.331 40.39-1.33 17.428-85.26 10.159-95.809 16.27-10.548 6.111-14.74 19.155-15.89 25.587-1.148 6.432 1.225 41.752 1.74 45.612.515 3.86 21.867 4.375 18.01 0-3.86-4.375-7.204-22.381 5.66-29.328 12.861-6.945 66.628 9.004 93.384 7.975.773 4.973 2.828 16.723 3.344 21.354.515 4.631 20.451 4.758 16.593-.387-3.859-5.145-.642-23.797 1.416-28.684 2.057-4.889 18.008-18.008 22.895-63.179 9.777-1.138 27.27-17.86 27.27-17.86Z" fill="#603814"/><g id="Group_3"><path id="Vector_29" d="M198.637 335.775c1.857.815 2.646 3.114 1.759 5.138-.887 2.018-3.109 2.996-4.965 2.184-1.859-.816-2.646-3.112-1.76-5.134.884-2.021 3.108-3 4.966-2.188Z" fill="#2D1306"/><path id="Vector_30" d="M196.143 335.938c1.121.489 1.599 1.879 1.063 3.104-.534 1.219-1.88 1.81-3.003 1.318-1.121-.49-1.599-1.881-1.063-3.102.536-1.221 1.881-1.813 3.003-1.32Z" fill="#FDFEFF"/></g><path id="Vector_31" d="M217.056 339.296c2.378-.801 10.563-.259 10.604 1.063.039 1.326-5.537 5.491-6.93 5.335-1.391-.152-5.284-6.127-3.674-6.398Z" fill="#391F0A"/><path id="Vector_32" d="M178.066 381.07c3.062.342 11.614.186 16.677-.09 5.064-.279 3.683-12.598.541-12.059-.516 1.223-.942 4.062-.942 4.062-28.284 1.431-45.375-18.779-46.919-21.268-1.541-2.499-7.863 2.586-5.62 6.331 2.239 3.75 9.966 20.088 36.263 23.024Z" fill="#409F91"/><path id="Vector_33" d="M184.239 326.916c5.402-11.521-24.695-12.416-28.812 3.583-4.117 16.001-9.262 58.396 12.21 65.82 20.976 4.557 11.199-57.883 16.602-69.403Z" fill="#46260F"/></g><g id="dog4"><path id="Vector_34" d="M170.919 564.603s-26.369 27.312-26.118 33.138c.252 5.827-14.759-6.308-13.142-8.309l25.555-31.61 13.705 6.781Z" fill="#A35318"/><path id="Vector_35" d="M65.435 564.33s-26.284 27.747-25.979 33.569c.304 5.825-14.658-6.376-13.059-8.391l25.272-31.837 13.766 6.659Z" fill="#A35318"/><path id="Vector_36" d="M224.308 490.093s1.092 27.72-29.778 27.14c-4.052-.964 0-11.769 0-11.769l29.778-15.371Z" fill="#A35318"/><path id="Vector_37" d="M49.436 530.547s-16.4-12.928-22.382-26.435c-2.315 10.227 13.12 36.66 13.12 36.66l9.262-10.225Z" fill="#391F0A"/><path id="Vector_38" d="M211.259 513.705c-2.479 0-8.238-.39-9.971-3.897l.863-.426c1.896 3.842 10.099 3.334 10.185 3.334l.063.959c-.073.005-.496.03-1.14.03Z" fill="#533420"/><path id="Vector_39" d="M224.308 490.093s-22.254.899-36.531-16.464c-5.595-5.211-8.875-4.116-17.751-1.286-8.876 2.829-22.999 22.961-24.331 40.39-1.33 17.428-85.26 10.159-95.809 16.27-10.548 6.111-15.926 29.015-17.075 35.447-1.148 6.432 24.535 32.15 20.047 37.312-2.555 2.938 26.818-.841 22.96-5.216-3.859-4.375-19.9-20.469-7.038-27.416 12.862-6.945 57.255 10.748 84.011 9.718.773 4.973 24.182 14.975 24.697 19.605.515 4.631 21.544 3.237 17.686-1.908-3.859-5.145-23.088-20.528-21.03-25.415 2.057-4.889 18.008-18.008 22.895-63.179 9.776-1.135 27.269-17.858 27.269-17.858Z" fill="#603814"/><g id="Group_4"><path id="Vector_40" d="M198.637 486.432c1.857.815 2.646 3.114 1.759 5.138-.887 2.018-3.109 2.996-4.965 2.184-1.859-.816-2.646-3.112-1.76-5.134.884-2.021 3.108-3.001 4.966-2.188Z" fill="#2D1306"/><path id="Vector_41" d="M196.143 486.595c1.121.489 1.599 1.879 1.063 3.104-.534 1.219-1.88 1.81-3.003 1.318-1.121-.49-1.599-1.881-1.063-3.102.536-1.22 1.881-1.812 3.003-1.32Z" fill="#FDFEFF"/></g><path id="Vector_42" d="M217.056 489.953c2.378-.801 10.563-.259 10.604 1.063.039 1.326-5.537 5.491-6.93 5.335-1.391-.152-5.284-6.126-3.674-6.398Z" fill="#391F0A"/><path id="Vector_43" d="M178.066 531.727c3.062.342 11.614.186 16.677-.09 5.064-.279 3.683-12.598.541-12.059-.516 1.223-.942 4.062-.942 4.062-28.284 1.431-45.375-18.779-46.919-21.268-1.541-2.499-7.863 2.586-5.62 6.331 2.238 3.749 9.966 20.087 36.263 23.024Z" fill="#409F91"/><path id="Vector_44" d="M184.239 477.573c5.402-11.521-24.695-12.416-28.812 3.583-4.117 16.001-9.262 58.396 12.21 65.82 20.976 4.556 11.199-57.884 16.602-69.403Z" fill="#46260F"/></g><g id="dog5"><path id="Vector_45" d="M184.432 700.588s-3.336 37.817.522 42.19c3.859 4.373-15.443 4.373-15.443 1.801v-40.647l14.921-3.344Z" fill="#A35318"/><path id="Vector_46" d="M72.268 702.391s-3.336 38.073.522 42.444c3.86 4.373-15.444 4.119-15.444 1.547v-40.649l14.922-3.342Z" fill="#A35318"/><path id="Vector_47" d="M224.308 639.875s1.092 27.721-29.778 27.141c-4.052-.965 0-11.77 0-11.77l29.778-15.371Z" fill="#A35318"/><path id="Vector_48" d="M49.436 680.33s-9.768-15.332-15.75-28.84c-2.315 10.227 6.488 39.064 6.488 39.064l9.262-10.224Z" fill="#391F0A"/><path id="Vector_49" d="M211.259 663.488c-2.479 0-8.238-.391-9.971-3.898l.863-.426c1.896 3.842 10.099 3.334 10.185 3.334l.063.959c-.073.006-.496.031-1.14.031Z" fill="#533420"/><path id="Vector_50" d="M224.308 639.875s-22.254.9-36.531-16.463c-5.595-5.211-8.875-4.117-17.751-1.287-8.876 2.83-22.999 22.961-24.331 40.391-1.33 17.428-85.26 10.158-95.809 16.27-10.548 6.111-14.74 19.154-15.89 25.586-1.148 6.433 1.225 41.753 1.74 45.612.515 3.859 21.867 4.375 18.01 0-3.86-4.375-7.204-22.381 5.66-29.328 12.861-6.945 66.628 9.004 93.384 7.975.773 4.973 2.828 16.723 3.344 21.354.515 4.631 20.451 4.758 16.593-.387-3.859-5.145-.642-23.797 1.416-28.684 2.057-4.889 18.008-18.009 22.895-63.179 9.777-1.137 27.27-17.86 27.27-17.86Z" fill="#603814"/><g id="Group_5"><path id="Vector_51" d="M198.637 636.216c1.857.814 2.646 3.112 1.759 5.136-.887 2.018-3.109 2.996-4.965 2.184-1.859-.816-2.646-3.111-1.76-5.133.884-2.022 3.108-3 4.966-2.187Z" fill="#2D1306"/><path id="Vector_52" d="M196.143 636.377c1.121.49 1.599 1.879 1.063 3.104-.534 1.219-1.88 1.811-3.003 1.318-1.121-.49-1.599-1.881-1.063-3.102.536-1.22 1.881-1.812 3.003-1.32Z" fill="#FDFEFF"/></g><path id="Vector_53" d="M217.056 639.736c2.378-.801 10.563-.26 10.604 1.062.039 1.326-5.537 5.492-6.93 5.336-1.391-.152-5.284-6.126-3.674-6.398Z" fill="#391F0A"/><path id="Vector_54" d="M178.066 681.51c3.062.342 11.614.186 16.677-.09 5.064-.279 3.683-12.598.541-12.059-.516 1.223-.942 4.061-.942 4.061-28.284 1.432-45.375-18.779-46.919-21.268-1.541-2.498-7.863 2.586-5.62 6.332 2.238 3.748 9.966 20.086 36.263 23.024Z" fill="#409F91"/><path id="Vector_55" d="M184.239 627.355c5.402-11.521-24.695-12.416-28.812 3.582-4.117 16.002-9.262 58.396 12.21 65.82 20.976 4.557 11.199-57.882 16.602-69.402Z" fill="#46260F"/></g><g id="dog6"><path id="Vector_56" d="M161.945 853.992s19.257 32.717 24.938 34.035c5.682 1.316-10.029 12.531-11.523 10.438l-23.616-33.083 10.201-11.39Z" fill="#A35318"/><path id="Vector_57" d="M60.927 852.425s14.58 35.329 20.02 37.431c5.44 2.104-11.81 10.771-12.995 8.489l-18.729-36.078 11.704-9.842Z" fill="#A35318"/><path id="Vector_58" d="M224.308 790.533s1.092 27.719-29.778 27.139c-4.052-.963 0-11.768 0-11.768l29.778-15.371Z" fill="#A35318"/><path id="Vector_59" d="M49.436 830.986s-16.4-12.928-22.382-26.434c-2.315 10.227 13.12 36.66 13.12 36.66l9.262-10.226Z" fill="#391F0A"/><path id="Vector_60" d="M211.26 814.144c-2.479 0-8.238-.389-9.971-3.896l.863-.426c1.896 3.842 10.099 3.334 10.185 3.334l.063.959c-.074.004-.497.029-1.14.029Z" fill="#533420"/><path id="Vector_61" d="M224.308 790.533s-22.254.898-36.531-16.465c-5.595-5.211-8.875-4.115-17.751-1.285-8.876 2.828-22.999 22.961-24.331 40.389-1.33 17.428-85.26 10.16-95.809 16.27-10.548 6.111-14.74 19.156-15.89 25.588-1.148 6.432-18.5 40.004-17.985 43.863.516 3.859 20.46 8.312 16.602 3.938-3.859-4.375 13.93-24.57 26.793-31.518 12.862-6.945 66.629 9.004 93.385 7.975.773 4.973-16.378 16.912-15.862 21.543.515 4.631 23.524 4.479 19.666-.666-3.859-5.145 15.491-23.707 17.549-28.594 2.057-4.889 18.008-18.008 22.895-63.18 9.776-1.136 27.269-17.858 27.269-17.858Z" fill="#603814"/><g id="Group_6"><path id="Vector_62" d="M198.637 786.871c1.857.816 2.646 3.115 1.759 5.139-.887 2.018-3.109 2.996-4.965 2.184-1.859-.816-2.646-3.113-1.76-5.135.884-2.02 3.108-3.001 4.966-2.188Z" fill="#2D1306"/><path id="Vector_63" d="M196.143 787.035c1.121.488 1.599 1.879 1.063 3.104-.534 1.219-1.88 1.809-3.003 1.318-1.121-.49-1.599-1.881-1.063-3.102.537-1.221 1.881-1.812 3.003-1.32Z" fill="#FDFEFF"/></g><path id="Vector_64" d="M217.056 790.392c2.378-.801 10.563-.258 10.604 1.064.039 1.326-5.537 5.49-6.93 5.334-1.39-.152-5.284-6.126-3.674-6.398Z" fill="#391F0A"/><path id="Vector_65" d="M178.066 832.166c3.062.342 11.614.186 16.677-.09 5.064-.279 3.683-12.598.541-12.059-.516 1.223-.942 4.062-.942 4.062-28.284 1.43-45.375-18.779-46.919-21.268-1.541-2.5-7.863 2.586-5.62 6.33 2.239 3.751 9.966 20.089 36.263 23.025Z" fill="#409F91"/><path id="Vector_66" d="M184.239 778.011c5.402-11.52-24.695-12.416-28.812 3.584-4.117 16-9.262 58.396 12.21 65.82 20.976 4.557 11.2-57.884 16.602-69.404Z" fill="#46260F"/></g><g id="dog7"><path id="Vector_67" d="M177.489 1005.27s-4.938 37.64-1.268 42.17c3.671 4.53-15.615 3.71-15.506 1.14l1.725-40.61 15.049-2.7Z" fill="#A35318"/><path id="Vector_68" d="M72.778 1004.39s-4.185 37.99-.424 42.44c3.761 4.46-15.532 3.78-15.475 1.21l.905-40.64 14.994-3.01Z" fill="#A35318"/><path id="Vector_69" d="M224.308 941.714s1.092 27.72-29.778 27.14c-4.052-.964 0-11.769 0-11.769l29.778-15.371Z" fill="#A35318"/><path id="Vector_70" d="M49.436 982.168s-20.214-3.335-26.195-16.842c-2.315 10.227 16.934 27.067 16.934 27.067l9.261-10.225Z" fill="#391F0A"/><path id="Vector_71" d="M211.26 965.326c-2.479 0-8.238-.39-9.971-3.897l.863-.426c1.896 3.842 10.099 3.334 10.185 3.334l.063.959c-.074.004-.497.03-1.14.03Z" fill="#533420"/><path id="Vector_72" d="M224.308 941.714s-22.254.899-36.531-16.464c-5.595-5.211-8.875-4.116-17.751-1.286-8.876 2.829-22.999 22.961-24.331 40.39-1.33 17.428-85.26 10.159-95.809 16.27-10.548 6.111-14.74 19.155-15.89 25.586-1.148 6.43-18.5 40-17.985 43.86.516 3.86 20.46 8.32 16.602 3.94-3.859-4.37 13.93-24.57 26.793-31.52 12.862-6.94 66.629 9.01 93.385 7.98.773 4.97-16.378 16.91-15.862 21.54.515 4.63 23.524 4.48 19.666-.66-3.859-5.15 15.491-23.71 17.549-28.6 2.057-4.89 18.008-18.01 22.895-63.177 9.776-1.137 27.269-17.859 27.269-17.859Z" fill="#603814"/><g id="Group_7"><path id="Vector_73" d="M198.637 938.052c1.857.815 2.646 3.114 1.759 5.138-.887 2.018-3.109 2.996-4.965 2.184-1.859-.816-2.646-3.112-1.76-5.134.884-2.021 3.108-3 4.966-2.188Z" fill="#2D1306"/><path id="Vector_74" d="M196.143 938.216c1.121.489 1.599 1.879 1.063 3.104-.534 1.219-1.88 1.81-3.003 1.318-1.121-.49-1.599-1.881-1.063-3.102.537-1.221 1.881-1.813 3.003-1.32Z" fill="#FDFEFF"/></g><path id="Vector_75" d="M217.056 941.574c2.378-.801 10.563-.259 10.604 1.063.039 1.326-5.537 5.491-6.93 5.335-1.39-.152-5.284-6.127-3.674-6.398Z" fill="#391F0A"/><path id="Vector_76" d="M178.066 983.347c3.062.342 11.614.186 16.677-.09 5.064-.279 3.683-12.598.541-12.059-.516 1.223-.942 4.062-.942 4.062-28.284 1.431-45.375-18.779-46.919-21.268-1.541-2.499-7.863 2.586-5.62 6.331 2.239 3.75 9.966 20.088 36.263 23.024Z" fill="#409F91"/><path id="Vector_77" d="M184.239 929.193c5.402-11.521-24.695-12.416-28.812 3.583-4.117 16.001-9.262 58.396 12.21 65.82 20.976 4.554 11.2-57.883 16.602-69.403Z" fill="#46260F"/></g><g id="dog8"><path id="Vector_78" d="M171.416 1164.92s-26.329 27.35-26.069 33.18c.261 5.83-14.769-6.29-13.154-8.29 1.614-2 25.509-31.65 25.509-31.65l13.714 6.76Z" fill="#A35318"/><path id="Vector_79" d="M59.504 1169.32s-30.382 23.19-31.013 28.98c-.63 5.8-13.449-8.63-11.549-10.37 1.902-1.73 30.04-27.38 30.04-27.38l12.522 8.77Z" fill="#A35318"/><path id="Vector_80" d="M224.308 1092.89s1.092 27.72-29.778 27.14c-4.052-.96 0-11.77 0-11.77l29.778-15.37Z" fill="#A35318"/><path id="Vector_81" d="M49.436 1133.35s-16.4-12.93-22.382-26.44c-2.315 10.23 13.12 36.66 13.12 36.66l9.262-10.22Z" fill="#391F0A"/><path id="Vector_82" d="M211.26 1116.51c-2.479 0-8.238-.39-9.971-3.9l.863-.43c1.896 3.84 10.099 3.34 10.185 3.34l.063.96c-.074 0-.497.03-1.14.03Z" fill="#533420"/><path id="Vector_83" d="M224.308 1092.89s-22.254.9-36.531-16.46c-5.595-5.21-8.875-4.12-17.751-1.29-8.876 2.83-22.999 22.96-24.331 40.39-1.33 17.43-85.26 10.16-95.809 16.27-10.548 6.11-14.74 19.16-15.89 25.59-1.148 6.43 1.225 41.75 1.74 45.61.515 3.86 21.867 4.38 18.01 0-3.86-4.37-7.204-22.38 5.66-29.33 12.861-6.94 66.628 9.01 93.384 7.98.773 4.97 2.828 16.72 3.344 21.35.515 4.63 20.451 4.76 16.593-.38-3.859-5.15-.642-23.8 1.416-28.69 2.057-4.89 18.008-18.01 22.895-63.18 9.777-1.13 27.27-17.86 27.27-17.86Z" fill="#603814"/><g id="Group_8"><path id="Vector_84" d="M198.637 1089.23c1.857.82 2.646 3.12 1.759 5.14-.887 2.02-3.109 3-4.965 2.18-1.859-.81-2.646-3.11-1.76-5.13.884-2.02 3.108-3 4.966-2.19Z" fill="#2D1306"/><path id="Vector_85" d="M196.143 1089.4c1.121.48 1.599 1.87 1.063 3.1-.534 1.22-1.88 1.81-3.003 1.32-1.121-.49-1.599-1.88-1.063-3.1.537-1.22 1.881-1.82 3.003-1.32Z" fill="#FDFEFF"/></g><path id="Vector_86" d="M217.056 1092.75c2.378-.8 10.563-.26 10.604 1.07.039 1.32-5.537 5.49-6.93 5.33-1.39-.15-5.284-6.12-3.674-6.4Z" fill="#391F0A"/><path id="Vector_87" d="M178.066 1134.53c3.062.34 11.614.18 16.677-.09 5.064-.28 3.683-12.6.541-12.06-.516 1.22-.942 4.06-.942 4.06-28.284 1.43-45.375-18.78-46.919-21.27-1.541-2.5-7.863 2.59-5.62 6.33 2.239 3.75 9.966 20.09 36.263 23.03Z" fill="#409F91"/><path id="Vector_88" d="M184.239 1080.37c5.402-11.52-24.695-12.41-28.812 3.59-4.117 16-9.262 58.39 12.21 65.82 20.976 4.55 11.2-57.89 16.602-69.41Z" fill="#46260F"/></g><g id="dog9"><path id="Vector_89" d="M170.92 1318.06s-26.369 27.31-26.118 33.14c.252 5.83-14.759-6.31-13.142-8.31l25.555-31.61 13.705 6.78Z" fill="#A35318"/><path id="Vector_90" d="M65.435 1317.79s-26.284 27.74-25.979 33.57c.304 5.82-14.658-6.38-13.059-8.4 1.601-2.01 25.272-31.83 25.272-31.83l13.766 6.66Z" fill="#A35318"/><path id="Vector_91" d="M224.308 1243.55s1.092 27.72-29.778 27.14c-4.052-.96 0-11.77 0-11.77l29.778-15.37Z" fill="#A35318"/><path id="Vector_92" d="M49.436 1284s-16.4-12.92-22.382-26.43c-2.315 10.23 13.12 36.66 13.12 36.66l9.262-10.23Z" fill="#391F0A"/><path id="Vector_93" d="M211.259 1267.16c-2.479 0-8.238-.39-9.971-3.89l.863-.43c1.896 3.84 10.099 3.33 10.185 3.33l.063.96c-.073.01-.496.03-1.14.03Z" fill="#533420"/><path id="Vector_94" d="M224.308 1243.55s-22.254.9-36.531-16.46c-5.595-5.22-8.875-4.12-17.751-1.29-8.876 2.83-22.999 22.96-24.331 40.39-1.33 17.43-85.26 10.16-95.809 16.27-10.548 6.11-15.926 29.02-17.075 35.45-1.148 6.43 24.535 32.15 20.047 37.31-2.555 2.94 26.818-.84 22.96-5.22-3.859-4.37-19.9-20.47-7.038-27.41 12.862-6.95 57.255 10.74 84.011 9.71.773 4.98 24.182 14.98 24.697 19.61.515 4.63 21.544 3.24 17.686-1.91-3.859-5.14-23.088-20.53-21.03-25.41 2.057-4.89 18.008-18.01 22.895-63.18 9.776-1.14 27.269-17.86 27.269-17.86Z" fill="#603814"/><g id="Group_9"><path id="Vector_95" d="M198.637 1239.89c1.857.81 2.646 3.11 1.759 5.14-.887 2.02-3.109 2.99-4.965 2.18-1.859-.81-2.646-3.11-1.76-5.13.884-2.02 3.108-3 4.966-2.19Z" fill="#2D1306"/><path id="Vector_96" d="M196.143 1240.05c1.121.49 1.599 1.88 1.063 3.11-.534 1.22-1.88 1.81-3.003 1.31-1.121-.49-1.599-1.88-1.063-3.1.536-1.22 1.881-1.81 3.003-1.32Z" fill="#FDFEFF"/></g><path id="Vector_97" d="M217.056 1243.41c2.378-.8 10.563-.26 10.604 1.06.039 1.33-5.537 5.49-6.93 5.34-1.39-.15-5.284-6.13-3.674-6.4Z" fill="#391F0A"/><path id="Vector_98" d="M178.066 1285.18c3.062.35 11.614.19 16.677-.09 5.064-.28 3.683-12.59.541-12.06-.516 1.23-.942 4.07-.942 4.07-28.284 1.43-45.375-18.78-46.919-21.27-1.541-2.5-7.863 2.58-5.62 6.33 2.239 3.75 9.966 20.09 36.263 23.02Z" fill="#409F91"/><path id="Vector_99" d="M184.239 1231.03c5.402-11.52-24.695-12.42-28.812 3.58-4.117 16-9.262 58.4 12.21 65.82 20.976 4.56 11.2-57.88 16.602-69.4Z" fill="#46260F"/></g></g></svg>