<?xml version="1.0" encoding="UTF-8"?>
<!-- This file is generated by npm run build:icons -->
<svg xmlns="http://www.w3.org/2000/svg" xmlns:xlink="http://www.w3.org/1999/xlink" width="0" height="0">
<defs>
<symbol viewBox="0 0 176 171" fill="none" id="Frame 1">
<circle cx="88" cy="85" r="83" fill="#FA954C"></circle>
<path d="M87.2614 97.2867C103.326 97.2867 117.042 99.8821 117.042 110.268C117.042 120.649 103.414 123.339 87.2614 123.339C71.1972 123.339 57.4806 120.744 57.4806 110.362C57.4806 99.9766 71.1092 97.2867 87.2614 97.2867ZM112.946 91.0329C119.087 90.9169 125.69 91.7763 128.13 92.3864C133.299 93.422 136.699 95.5361 138.107 98.6085C139.298 101.131 139.298 104.057 138.107 106.575C135.952 111.34 129.006 112.87 126.306 113.265C125.749 113.351 125.3 112.857 125.359 112.286C126.738 99.0811 115.767 92.8204 112.929 91.3809C112.808 91.3165 112.783 91.2176 112.795 91.1575C112.803 91.1145 112.854 91.0458 112.946 91.0329ZM62.0571 91.0346C62.1494 91.0475 62.1955 91.1162 62.2038 91.1549C62.2164 91.2194 62.1913 91.3139 62.0739 91.3826C59.2316 92.8221 48.2609 99.0828 49.6401 112.283C49.6988 112.859 49.2544 113.349 48.6969 113.267C45.9971 112.872 39.0508 111.342 36.8961 106.577C35.7013 104.054 35.7013 101.132 36.8961 98.6102C38.3046 95.5378 41.7002 93.4237 46.8691 92.3838C49.3131 91.778 55.9115 90.9186 62.0571 91.0346ZM87.2614 47C98.1986 47 106.968 55.9807 106.968 67.1958C106.968 78.4066 98.1986 87.3959 87.2614 87.3959C76.3241 87.3959 67.5542 78.4066 67.5542 67.1958C67.5542 55.9807 76.3241 47 87.2614 47ZM114.015 50.368C124.579 50.368 132.875 60.5561 130.05 71.9044C128.142 79.5445 121.238 84.6192 113.545 84.4129C112.774 84.3915 112.015 84.3184 111.282 84.1895C110.749 84.095 110.481 83.4805 110.783 83.025C113.717 78.5991 115.39 73.2752 115.39 67.5602C115.39 61.596 113.562 56.0357 110.389 51.4766C110.288 51.3348 110.213 51.1157 110.313 50.9524C110.397 50.8192 110.552 50.7504 110.699 50.716C111.768 50.4926 112.866 50.368 114.015 50.368ZM60.9818 50.3675C62.1305 50.3675 63.2288 50.4922 64.302 50.7156C64.4445 50.75 64.6038 50.823 64.6877 50.9519C64.7841 51.1152 64.7128 51.3344 64.6122 51.4762C61.4388 56.0353 59.611 61.5956 59.611 67.5598C59.611 73.2747 61.2837 78.5987 64.2182 83.0246C64.52 83.4801 64.2517 84.0945 63.7193 84.1891C62.9815 84.3223 62.2269 84.391 61.4556 84.4125C53.763 84.6188 46.8586 79.544 44.9512 71.904C42.1215 60.5557 50.4177 50.3675 60.9818 50.3675Z" fill="black"></path>
</symbol>
<symbol id="layered-waves-haikei" viewBox="0 0 2400 600"><rect x="0" y="0" width="2400" height="600" fill="#2a9cf3"></rect><path d="M0 445L57.2 432.8C114.3 420.7 228.7 396.3 343 388.8C457.3 381.3 571.7 390.7 686 398.2C800.3 405.7 914.7 411.3 1028.8 406.3C1143 401.3 1257 385.7 1371.2 387.8C1485.3 390 1599.7 410 1714 413.5C1828.3 417 1942.7 404 2057 393.8C2171.3 383.7 2285.7 376.3 2342.8 372.7L2400 369L2400 601L2342.8 601C2285.7 601 2171.3 601 2057 601C1942.7 601 1828.3 601 1714 601C1599.7 601 1485.3 601 1371.2 601C1257 601 1143 601 1028.8 601C914.7 601 800.3 601 686 601C571.7 601 457.3 601 343 601C228.7 601 114.3 601 57.2 601L0 601Z" fill="#95fa69"></path><path d="M0 454L57.2 452.7C114.3 451.3 228.7 448.7 343 440.3C457.3 432 571.7 418 686 415.8C800.3 413.7 914.7 423.3 1028.8 431.3C1143 439.3 1257 445.7 1371.2 441.5C1485.3 437.3 1599.7 422.7 1714 423.7C1828.3 424.7 1942.7 441.3 2057 443.8C2171.3 446.3 2285.7 434.7 2342.8 428.8L2400 423L2400 601L2342.8 601C2285.7 601 2171.3 601 2057 601C1942.7 601 1828.3 601 1714 601C1599.7 601 1485.3 601 1371.2 601C1257 601 1143 601 1028.8 601C914.7 601 800.3 601 686 601C571.7 601 457.3 601 343 601C228.7 601 114.3 601 57.2 601L0 601Z" fill="#becb26"></path><path d="M0 472L57.2 476.8C114.3 481.7 228.7 491.3 343 491.8C457.3 492.3 571.7 483.7 686 480C800.3 476.3 914.7 477.7 1028.8 475.3C1143 473 1257 467 1371.2 470.3C1485.3 473.7 1599.7 486.3 1714 483C1828.3 479.7 1942.7 460.3 2057 455.2C2171.3 450 2285.7 459 2342.8 463.5L2400 468L2400 601L2342.8 601C2285.7 601 2171.3 601 2057 601C1942.7 601 1828.3 601 1714 601C1599.7 601 1485.3 601 1371.2 601C1257 601 1143 601 1028.8 601C914.7 601 800.3 601 686 601C571.7 601 457.3 601 343 601C228.7 601 114.3 601 57.2 601L0 601Z" fill="#cf9a00"></path><path d="M0 522L57.2 524.5C114.3 527 228.7 532 343 528.3C457.3 524.7 571.7 512.3 686 503.5C800.3 494.7 914.7 489.3 1028.8 490.7C1143 492 1257 500 1371.2 501.3C1485.3 502.7 1599.7 497.3 1714 493.5C1828.3 489.7 1942.7 487.3 2057 487.5C2171.3 487.7 2285.7 490.3 2342.8 491.7L2400 493L2400 601L2342.8 601C2285.7 601 2171.3 601 2057 601C1942.7 601 1828.3 601 1714 601C1599.7 601 1485.3 601 1371.2 601C1257 601 1143 601 1028.8 601C914.7 601 800.3 601 686 601C571.7 601 457.3 601 343 601C228.7 601 114.3 601 57.2 601L0 601Z" fill="#d16606"></path><path d="M0 538L57.2 542.3C114.3 546.7 228.7 555.3 343 558.7C457.3 562 571.7 560 686 557.5C800.3 555 914.7 552 1028.8 549.5C1143 547 1257 545 1371.2 544.7C1485.3 544.3 1599.7 545.7 1714 546.2C1828.3 546.7 1942.7 546.3 2057 544C2171.3 541.7 2285.7 537.3 2342.8 535.2L2400 533L2400 601L2342.8 601C2285.7 601 2171.3 601 2057 601C1942.7 601 1828.3 601 1714 601C1599.7 601 1485.3 601 1371.2 601C1257 601 1143 601 1028.8 601C914.7 601 800.3 601 686 601C571.7 601 457.3 601 343 601C228.7 601 114.3 601 57.2 601L0 601Z" fill="#c72424"></path></symbol>
<symbol viewBox="0 0 24 24" fill="none" stroke="currentColor" stroke-width="2" stroke-linecap="round" stroke-linejoin="round" id="lucide/camera">
  <path d="M14.5 4h-5L7 7H4a2 2 0 0 0-2 2v9a2 2 0 0 0 2 2h16a2 2 0 0 0 2-2V9a2 2 0 0 0-2-2h-3l-2.5-3z" ></path>
  <circle cx="12" cy="13" r="3" ></circle>
</symbol>
</defs>
</svg>
