<svg id="visual" viewBox="0 0 2400 600" width="2400" height="600" xmlns="http://www.w3.org/2000/svg"
    xmlns:xlink="http://www.w3.org/1999/xlink" version="1.1">
    <g stroke-width="1" stroke-linejoin="bevel">
        <path d="M1299.3 366L1318.3 217L1072.7 215Z" fill="#246688" stroke="#246688"></path>
        <path d="M1072.7 215L1042.7 376L1299.3 366Z" fill="#15384f" stroke="#15384f"></path>
        <path d="M1318.3 217L1054.7 0L1072.7 215Z" fill="#297ea6" stroke="#297ea6"></path>
        <path d="M787 218L809 417L1042.7 376Z" fill="#1d4e6b" stroke="#1d4e6b"></path>
        <path d="M1318.3 217L1338.3 0L1054.7 0Z" fill="#277297" stroke="#277297"></path>
        <path d="M1042.7 376L1084.7 600L1299.3 366Z" fill="#15384f" stroke="#15384f"></path>
        <path d="M1084.7 600L1354.3 600L1299.3 366Z" fill="#112e42" stroke="#112e42"></path>
        <path d="M1601 394L1610 214L1318.3 217Z" fill="#297ea6" stroke="#297ea6"></path>
        <path d="M1318.3 217L1610 214L1338.3 0Z" fill="#15384f" stroke="#15384f"></path>
        <path d="M787 218L1042.7 376L1072.7 215Z" fill="#112e42" stroke="#112e42"></path>
        <path d="M1042.7 376L815 600L1084.7 600Z" fill="#277297" stroke="#277297"></path>
        <path d="M1054.7 0L787 218L1072.7 215Z" fill="#277297" stroke="#277297"></path>
        <path d="M1601 394L1318.3 217L1299.3 366Z" fill="#205a7a" stroke="#205a7a"></path>
        <path d="M1354.3 600L1601 394L1299.3 366Z" fill="#0c2435" stroke="#0c2435"></path>
        <path d="M1354.3 600L1561 600L1601 394Z" fill="#246688" stroke="#246688"></path>
        <path d="M1610 214L1604 0L1338.3 0Z" fill="#0c2435" stroke="#0c2435"></path>
        <path d="M536.3 431L815 600L809 417Z" fill="#277297" stroke="#277297"></path>
        <path d="M809 417L815 600L1042.7 376Z" fill="#297ea6" stroke="#297ea6"></path>
        <path d="M1054.7 0L774 0L787 218Z" fill="#246688" stroke="#246688"></path>
        <path d="M774 0L570.3 212L787 218Z" fill="#246688" stroke="#246688"></path>
        <path d="M787 218L570.3 212L809 417Z" fill="#1d4e6b" stroke="#1d4e6b"></path>
        <path d="M1873.7 389L1862.7 169L1610 214Z" fill="#00101c" stroke="#00101c"></path>
        <path d="M1610 214L1862.7 169L1604 0Z" fill="#19435d" stroke="#19435d"></path>
        <path d="M1873.7 389L1610 214L1601 394Z" fill="#0c2435" stroke="#0c2435"></path>
        <path d="M570.3 212L536.3 431L809 417Z" fill="#1d4e6b" stroke="#1d4e6b"></path>
        <path d="M1901.7 600L1873.7 389L1601 394Z" fill="#277297" stroke="#277297"></path>
        <path d="M774 0L518.3 0L570.3 212Z" fill="#1d4e6b" stroke="#1d4e6b"></path>
        <path d="M570.3 212L305.7 180L536.3 431Z" fill="#081a28" stroke="#081a28"></path>
        <path d="M1862.7 169L1879.7 0L1604 0Z" fill="#205a7a" stroke="#205a7a"></path>
        <path d="M2099.3 0L1879.7 0L1862.7 169Z" fill="#19435d" stroke="#19435d"></path>
        <path d="M288.7 436L525.3 600L536.3 431Z" fill="#246688" stroke="#246688"></path>
        <path d="M536.3 431L525.3 600L815 600Z" fill="#297ea6" stroke="#297ea6"></path>
        <path d="M1561 600L1901.7 600L1601 394Z" fill="#297ea6" stroke="#297ea6"></path>
        <path d="M1873.7 389L2120.3 231L1862.7 169Z" fill="#19435d" stroke="#19435d"></path>
        <path d="M518.3 0L305.7 180L570.3 212Z" fill="#205a7a" stroke="#205a7a"></path>
        <path d="M305.7 180L288.7 436L536.3 431Z" fill="#15384f" stroke="#15384f"></path>
        <path d="M2154.3 408L2120.3 231L1873.7 389Z" fill="#277297" stroke="#277297"></path>
        <path d="M518.3 0L291.7 0L305.7 180Z" fill="#205a7a" stroke="#205a7a"></path>
        <path d="M305.7 180L0 383L288.7 436Z" fill="#246688" stroke="#246688"></path>
        <path d="M2120.3 231L2099.3 0L1862.7 169Z" fill="#112e42" stroke="#112e42"></path>
        <path d="M1901.7 600L2154.3 408L1873.7 389Z" fill="#205a7a" stroke="#205a7a"></path>
        <path d="M2120.3 231L2400 0L2099.3 0Z" fill="#112e42" stroke="#112e42"></path>
        <path d="M0 600L273.7 600L288.7 436Z" fill="#081a28" stroke="#081a28"></path>
        <path d="M288.7 436L273.7 600L525.3 600Z" fill="#00101c" stroke="#00101c"></path>
        <path d="M1901.7 600L2168.3 600L2154.3 408Z" fill="#205a7a" stroke="#205a7a"></path>
        <path d="M291.7 0L0 179L305.7 180Z" fill="#205a7a" stroke="#205a7a"></path>
        <path d="M0 179L0 383L305.7 180Z" fill="#277297" stroke="#277297"></path>
        <path d="M2400 390L2400 213L2154.3 408Z" fill="#297ea6" stroke="#297ea6"></path>
        <path d="M2154.3 408L2400 213L2120.3 231Z" fill="#112e42" stroke="#112e42"></path>
        <path d="M2400 600L2400 390L2154.3 408Z" fill="#00101c" stroke="#00101c"></path>
        <path d="M291.7 0L0 0L0 179Z" fill="#297ea6" stroke="#297ea6"></path>
        <path d="M2400 213L2400 0L2120.3 231Z" fill="#297ea6" stroke="#297ea6"></path>
        <path d="M0 383L0 600L288.7 436Z" fill="#00101c" stroke="#00101c"></path>
        <path d="M2168.3 600L2400 600L2154.3 408Z" fill="#277297" stroke="#277297"></path>
    </g>
</svg>