<svg id="visual" viewBox="0 0 2400 600" width="2400" height="600" xmlns="http://www.w3.org/2000/svg" xmlns:xlink="http://www.w3.org/1999/xlink" version="1.1"><path d="M0 151L36.3 143C72.7 135 145.3 119 218 117C290.7 115 363.3 127 436.2 135C509 143 582 147 654.8 134C727.7 121 800.3 91 873 86C945.7 81 1018.3 101 1091 115C1163.7 129 1236.3 137 1309 143C1381.7 149 1454.3 153 1527 151C1599.7 149 1672.3 141 1745.2 125C1818 109 1891 85 1963.8 84C2036.7 83 2109.3 105 2182 118C2254.7 131 2327.3 135 2363.7 137L2400 139L2400 0L2363.7 0C2327.3 0 2254.7 0 2182 0C2109.3 0 2036.7 0 1963.8 0C1891 0 1818 0 1745.2 0C1672.3 0 1599.7 0 1527 0C1454.3 0 1381.7 0 1309 0C1236.3 0 1163.7 0 1091 0C1018.3 0 945.7 0 873 0C800.3 0 727.7 0 654.8 0C582 0 509 0 436.2 0C363.3 0 290.7 0 218 0C145.3 0 72.7 0 36.3 0L0 0Z" fill="#6198ff"></path><path d="M0 271L36.3 265C72.7 259 145.3 247 218 245C290.7 243 363.3 251 436.2 258C509 265 582 271 654.8 259C727.7 247 800.3 217 873 206C945.7 195 1018.3 203 1091 210C1163.7 217 1236.3 223 1309 224C1381.7 225 1454.3 221 1527 222C1599.7 223 1672.3 229 1745.2 217C1818 205 1891 175 1963.8 174C2036.7 173 2109.3 201 2182 217C2254.7 233 2327.3 237 2363.7 239L2400 241L2400 137L2363.7 135C2327.3 133 2254.7 129 2182 116C2109.3 103 2036.7 81 1963.8 82C1891 83 1818 107 1745.2 123C1672.3 139 1599.7 147 1527 149C1454.3 151 1381.7 147 1309 141C1236.3 135 1163.7 127 1091 113C1018.3 99 945.7 79 873 84C800.3 89 727.7 119 654.8 132C582 145 509 141 436.2 133C363.3 125 290.7 113 218 115C145.3 117 72.7 133 36.3 141L0 149Z" fill="#3c80ff"></path><path d="M0 439L36.3 438C72.7 437 145.3 435 218 436C290.7 437 363.3 441 436.2 426C509 411 582 377 654.8 353C727.7 329 800.3 315 873 331C945.7 347 1018.3 393 1091 406C1163.7 419 1236.3 399 1309 388C1381.7 377 1454.3 375 1527 363C1599.7 351 1672.3 329 1745.2 314C1818 299 1891 291 1963.8 297C2036.7 303 2109.3 323 2182 338C2254.7 353 2327.3 363 2363.7 368L2400 373L2400 239L2363.7 237C2327.3 235 2254.7 231 2182 215C2109.3 199 2036.7 171 1963.8 172C1891 173 1818 203 1745.2 215C1672.3 227 1599.7 221 1527 220C1454.3 219 1381.7 223 1309 222C1236.3 221 1163.7 215 1091 208C1018.3 201 945.7 193 873 204C800.3 215 727.7 245 654.8 257C582 269 509 263 436.2 256C363.3 249 290.7 241 218 243C145.3 245 72.7 257 36.3 263L0 269Z" fill="#0066ff"></path><path d="M0 475L36.3 474C72.7 473 145.3 471 218 479C290.7 487 363.3 505 436.2 493C509 481 582 439 654.8 408C727.7 377 800.3 357 873 374C945.7 391 1018.3 445 1091 464C1163.7 483 1236.3 467 1309 452C1381.7 437 1454.3 423 1527 416C1599.7 409 1672.3 409 1745.2 394C1818 379 1891 349 1963.8 351C2036.7 353 2109.3 387 2182 412C2254.7 437 2327.3 453 2363.7 461L2400 469L2400 371L2363.7 366C2327.3 361 2254.7 351 2182 336C2109.3 321 2036.7 301 1963.8 295C1891 289 1818 297 1745.2 312C1672.3 327 1599.7 349 1527 361C1454.3 373 1381.7 375 1309 386C1236.3 397 1163.7 417 1091 404C1018.3 391 945.7 345 873 329C800.3 313 727.7 327 654.8 351C582 375 509 409 436.2 424C363.3 439 290.7 435 218 434C145.3 433 72.7 435 36.3 436L0 437Z" fill="#0059dd"></path><path d="M0 601L36.3 601C72.7 601 145.3 601 218 601C290.7 601 363.3 601 436.2 601C509 601 582 601 654.8 601C727.7 601 800.3 601 873 601C945.7 601 1018.3 601 1091 601C1163.7 601 1236.3 601 1309 601C1381.7 601 1454.3 601 1527 601C1599.7 601 1672.3 601 1745.2 601C1818 601 1891 601 1963.8 601C2036.7 601 2109.3 601 2182 601C2254.7 601 2327.3 601 2363.7 601L2400 601L2400 467L2363.7 459C2327.3 451 2254.7 435 2182 410C2109.3 385 2036.7 351 1963.8 349C1891 347 1818 377 1745.2 392C1672.3 407 1599.7 407 1527 414C1454.3 421 1381.7 435 1309 450C1236.3 465 1163.7 481 1091 462C1018.3 443 945.7 389 873 372C800.3 355 727.7 375 654.8 406C582 437 509 479 436.2 491C363.3 503 290.7 485 218 477C145.3 469 72.7 471 36.3 472L0 473Z" fill="#004cbb"></path></svg>